<?xml version="1.0" encoding="UTF-8" standalone="no"?>
<svg
   data-name="Layer 1"
   width="926.63239"
   height="785.99373"
   viewBox="0 0 926.63239 785.99373"
   version="1.1"
   id="svg82"
   sodipodi:docname="home.svg"
   inkscape:version="1.3.2 (091e20ef0f, 2023-11-25, custom)"
   xmlns:inkscape="http://www.inkscape.org/namespaces/inkscape"
   xmlns:sodipodi="http://sodipodi.sourceforge.net/DTD/sodipodi-0.dtd"
   xmlns="http://www.w3.org/2000/svg"
   xmlns:svg="http://www.w3.org/2000/svg">
  <defs
     id="defs86" />
  <sodipodi:namedview
     id="namedview84"
     pagecolor="#ffffff"
     bordercolor="#666666"
     borderopacity="1.0"
     inkscape:pageshadow="2"
     inkscape:pageopacity="0.0"
     inkscape:pagecheckerboard="0"
     showgrid="false"
     inkscape:zoom="0.6514047"
     inkscape:cx="57.567899"
     inkscape:cy="445.19175"
     inkscape:window-width="2503"
     inkscape:window-height="1004"
     inkscape:window-x="1977"
     inkscape:window-y="40"
     inkscape:window-maximized="1"
     inkscape:current-layer="svg82"
     inkscape:showpageshadow="2"
     inkscape:deskcolor="#d1d1d1" />
  <path
     d="M1030.88654,386.0594c-46.33985,59.26-133.78028,72.83-206.12989,52.19a335.51025,335.51025,0,0,1-68.1001-28.35c-12.54-6.81-24.77978-14.28-36.77-22.24-2.9502-1.95-5.89991-3.93-8.81983-5.95q-2.98534-2.04-5.95019-4.12994c-24.76026-17.42-48.54981-36.53-71.94-55.53-58.39013-47.43-118.37988-96.32-190.12011-118.95-14.77979-4.66-33.89991-6.84-43.04,5.68-7.92969,10.87-3.08985,26.26,3.62012,37.92005,24.89013,43.19,70.06982,70.46,115.29,91.43,45.21973,20.97,93.12012,37.96,132.42969,68.62,39.31006,30.66,69.32031,79.39,61.28028,128.58-6.93018,42.39-41.54,76.83-81.78028,91.84-40.23974,15-85.11963,12.91-126.94971,3.17-41.83007-9.75-81.54-26.76-121.91015-41.42-24.33985-8.85-56.15967-14.97-72.31006,5.28-13.63965,17.11-5.7998,44.1,10.81006,58.34s39.09033,19.01,60.54,23.29q99.90015,19.95,199.80029,39.89c20.42969,4.07,41.33984,8.33,59.13965,19.17,17.80029,10.83,32.16016,29.75,31.65039,50.58-.51025,20.53-15.54,38.67-33.96045,47.76-18.40967,9.08-39.66992,10.48-60.17969,9.5-76.85986-3.68-297.21-125.79-350.06006-141.4-33.96-10.02-71.08984-24.74-85.41015-57.12006-17.83008-40.31,11.51025-89.07995,51.56006-107.49,40.04-18.42,86.46-14.34,130.10009-8.13995,43.64014,6.19995,88.71973,14.09,131.2002,2.31,42.47949-11.78,81.3999-50.18006,77.21-94.06-3.65039-38.18005-38.04-66.95-74.23047-79.63-28.32959-9.93-58.46972-12.63-88.22949-17.1-8.26025-1.23-16.49023-2.61-24.64014-4.31a307.086,307.086,0,0,1-60.75-19.5,312.92391,312.92391,0,0,1-58.04-33.31,305.265,305.265,0,0,1-40.31982-35.01q-2.83521-2.93994-5.61035-6.01c-1.75977-1.96-3.5-3.96-5.19971-6-22.12012-26.43-38.46045-58.98-33.56006-92.51995,4.88965-33.45,30.96-61.3,62-74.68,17.93994-7.73,37.29-11.19,56.87989-11.69a233.79559,233.79559,0,0,1,42.77978,3.08c65.41016,10.46,125.3501,42.24005,181.96045,76.65,56.59961,34.41,111.75977,72.18,173.28955,96.71,61.53027,24.54,131.57031,34.93,193.99023,12.74,62.41993-22.18,113.69971-82.7,110.64991-148.87,41.3999,35.65,76.58008,80.46,92.16015,132.82C1070.79669,282.5594,1064.53644,343.01942,1030.88654,386.0594Z"
     fill="#3f3d56"
     id="path2"
     transform="translate(-136.6838 -57.00314)" />
  <circle
     cx="595.91072"
     cy="253.39374"
     r="7.27771"
     fill="#f9a826"
     id="circle4" />
  <circle
     cx="852.91072"
     cy="157.39374"
     r="11.25197"
     fill="#ff6584"
     id="circle6" />
  <circle
     cx="114.91072"
     cy="511.39374"
     r="4.15748"
     fill="#ff6584"
     id="circle8" />
  <path
     d="M370.92657,329.39937a44.42971,44.42971,0,0,1-1.2998,10.7c-8.26025-1.23-16.49023-2.61-24.64014-4.31a307.086,307.086,0,0,1-60.75-19.5,44.3374,44.3374,0,0,1,86.68994,13.11Z"
     transform="translate(-136.6838 -57.00314)"
     fill="#ff6584"
     id="path10" />
  <circle
     cx="780.91072"
     cy="230.39374"
     r="4.25197"
     fill="#f0f0f0"
     id="circle12" />
  <circle
     cx="391.91072"
     cy="698.39374"
     r="4.25197"
     fill="#f0f0f0"
     id="circle14" />
  <circle
     cx="452.91072"
     cy="757.39374"
     r="4.25197"
     fill="#f0f0f0"
     id="circle16" />
  <circle
     cx="75.91072"
     cy="589.39374"
     r="4.25197"
     fill="#f0f0f0"
     id="circle18" />
  <circle
     cx="284.91072"
     cy="510.39374"
     r="4.25197"
     fill="#f0f0f0"
     id="circle20" />
  <circle
     cx="263.91072"
     cy="88.39374"
     r="4.25197"
     fill="#f0f0f0"
     id="circle22" />
  <circle
     cx="520.91072"
     cy="421.39374"
     r="4.25197"
     fill="#f0f0f0"
     id="circle24" />
  <circle
     cx="552.91072"
     cy="495.39374"
     r="4.25197"
     fill="#f0f0f0"
     id="circle26" />
  <path
     d="M291.52716,220.72761q9.0747-2.73879,17.36182-5.93548c33.96045-13.11719,53.438-30.91113,53.438-48.82031s-19.47753-35.70313-53.438-48.82032q-5.0376-1.94568-10.38575-3.72345a136.34021,136.34021,0,0,1-6.97607,107.29956Z"
     transform="translate(-136.6838 -57.00314)"
     fill="none"
     id="path28" />
  <path
     d="M306.32648,158.96937a135.44,135.44,0,0,1-14.79981,61.76q-1.93506,3.78-4.1001,7.43a136.43138,136.43138,0,0,1-61.23,54.82,305.26946,305.26946,0,0,1-40.31982-35.01q-2.83521-2.94-5.61035-6.01c-1.75977-1.96-3.5-3.96-5.19971-6-22.12012-26.43-38.46045-58.98-33.56006-92.51995,4.88965-33.45,30.96-61.30005,62-74.68006,17.93994-7.73,37.29-11.18994,56.87989-11.68994a136.1263,136.1263,0,0,1,35.33007,49.16c1,2.37,1.91993,4.77,2.79,7.2A135.75647,135.75647,0,0,1,306.32648,158.96937Z"
     transform="translate(-136.6838 -57.00314)"
     fill="#f9a826"
     id="path30" />
  <path
     d="M368.32648,165.96937c0,20.83-20.33985,40.15-57.27979,54.42-7.39014,2.86-15.30029,5.45-23.62012,7.77-31.14013,8.68-68.20019,13.49-107.16015,13.8-1.75977-1.96-3.5-3.96-5.19971-6,.41992.01.83984.01,1.25977.01,42.31006,0,82.45019-5.36,115.20019-15.24,6.04981-1.83,11.8501-3.81,17.35987-5.94,33.96-13.11,53.43994-30.91,53.43994-48.82,0-17.91-19.48-35.7-53.43994-48.82q-5.03981-1.95-10.37989-3.72c-.87011-2.43-1.79-4.83-2.79-7.2q7.97975,2.49,15.33008,5.32C347.98663,125.81935,368.32648,145.14937,368.32648,165.96937Z"
     transform="translate(-136.6838 -57.00314)"
     fill="#e4e4e4"
     id="path32" />
  <circle
     cx="45.91072"
     cy="30.39374"
     r="4.25197"
     fill="#f0f0f0"
     id="circle34" />
  <circle
     cx="134.91072"
     cy="57.39374"
     r="4.25197"
     fill="#f0f0f0"
     id="circle36" />
  <circle
     cx="88.91072"
     cy="100.39374"
     r="41.34843"
     fill="#f0f0f0"
     id="circle38" />
  <path
     d="M989.19659,376.23939c-9.28027,2.74-29.74023,4.76-52.24023,6-22.48975,1.23-47.15967,1.77-71.52,2.29q-63.95947,1.38008-127.90967,2.77-8.79052.195-17.64013.36c-2.9502-1.95-5.89991-3.93-8.81983-5.95,5.23.03,10.46,0,15.6499-.1,22.16993-.44,40.93994-2.17,62.31983-2.99,32.8999-1.27,68.41992-.27,102.71.24C926.03644,379.37941,965.10626,379.18941,989.19659,376.23939Z"
     transform="translate(-136.6838 -57.00314)"
     fill="#f0f0f0"
     opacity="0.3"
     id="path40" />
  <path
     d="M334.76739,691.47011,198.8465,578.23939,330.89142,696.00551a3.15089,3.15089,0,1,0,3.876-4.5354Z"
     transform="translate(-136.6838 -57.00314)"
     fill="#f0f0f0"
     opacity="0.3"
     id="path42" />
  <circle
     cx="94.91072"
     cy="201.39374"
     r="4.25197"
     fill="#f0f0f0"
     id="circle44" />
  <polygon
     points="452.017 694.074 469.604 694.073 477.971 626.236 452.014 626.237 452.017 694.074"
     fill="#ffb6b6"
     id="polygon46" />
  <path
     d="M584.21461,745.3347l4.95031-.0002,19.32677-7.85976,10.35857,7.85856h.0014a22.07371,22.07371,0,0,1,22.07254,22.07219v.71727l-56.70854.0021Z"
     transform="translate(-136.6838 -57.00314)"
     fill="#2f2e41"
     id="path48" />
  <polygon
     points="320.308 694.074 302.721 694.073 294.354 626.236 320.311 626.237 320.308 694.074"
     fill="#ffb6b6"
     id="polygon50" />
  <path
     d="M461.47733,768.12486l-56.70854-.0021v-.71727a22.07373,22.07373,0,0,1,22.07255-22.07219h.0014l10.35856-7.85856,19.32678,7.85976,4.9503.0002Z"
     transform="translate(-136.6838 -57.00314)"
     fill="#2f2e41"
     id="path52" />
  <path
     d="m 431.34749,135.03761 -1.14081,17.91559 c 0.42202,4.28928 3.59773,7.18662 2.67398,11.39646 -0.92376,4.20983 -3.42858,8.30546 -7.3769,10.03365 -3.94833,1.7282 -10.57789,10.69751 -12.30786,6.74995 -1.35334,5.64381 -24.83828,7.00787 -20.81983,2.82026 8.96721,-9.3447 0.62332,-8.73971 1.06898,-4.07971 0.55256,5.77743 -7.90089,-1.18018 -13.30689,0.93154 13.58538,-6.90569 5.8292,-3.53322 -1.5312,-3.51578 -4.79832,0.0113 -9.16458,-3.96938 -8.24839,-4.32034 -2.43719,-1.10378 -5.31284,-0.13016 -6.57819,2.2272 0.4927,-3.31524 2.22846,-6.31876 4.85482,-8.40099 -13.7025,13.01486 -3.24573,-2.03125 -5.18833,-6.63212 -1.82104,-4.77543 1.11605,-9.08672 2.27417,-14.06465 l 5.347,-22.98189 c 0.54496,3.94939 0.1245,7.95946 0.11573,11.94624 -0.009,3.98677 0.44775,8.13274 2.53627,11.52871 1.35315,2.20021 13.57469,4.85852 18.40454,3.64831 2.45941,-0.61624 -2.61387,2.9389 -1.26356,2.55504 19.31935,-5.49179 14.07606,2.27401 16.11737,1.35936 4.18844,-1.87665 -8.27304,-8.63558 -3.85053,-7.4085 4.4225,1.22708 8.79452,4.89561 13.21525,6.12934 2.76789,0.77246 5.92779,1.19171 8.35586,-0.34535 1.70665,-1.28573 2.98198,-3.06004 3.65671,-5.08747 1.66909,-3.98913 2.7486,-8.19997 3.20459,-12.50011"
     fill="#2f2e41"
     id="path80-6"
     style="stroke-width:1.02464"
     sodipodi:nodetypes="ccsscsscsccccscsssssssccc" />
  <path
     d="m 518.7466,236.80844 -16.54533,7.94276 -47.30511,12.5278 c 0,0 16.95034,118.9604 8.95034,126.9604 -8,8 -0.785,8.215 -2.3925,18.60751 -1.6075,10.39251 -8.0134,37.83062 -8.0134,37.83062 h 141.18774 c 0,0 1.13768,-17.05233 -5.82208,-20.74524 -6.95976,-3.69291 6.41582,-20.92914 0.728,-23.811 -5.68782,-2.88186 2.31221,-27.88189 2.31221,-27.88189 l 17.33726,-81.84953 -46.11409,-36.07971 -13.62488,-12.48287 c -8.99097,3.24054 -19.10756,3.23573 -30.69816,-1.01885 z"
     transform="translate(-136.6838,-57.00314)"
     fill="#f9a826"
     id="path54"
     style="fill:#ffc79b;fill-opacity:1"
     sodipodi:nodetypes="cccssccssccccc" />
  <path
     d="m 457.68656,257.16325 c 0,0 -7.27771,-1.45554 -11.64435,11.64435 -4.36664,13.09989 -20.37763,62.58838 -20.37763,71.32162 0,4.33734 -3.2556,22.85506 3.21669,53.46665 6.55967,31.02485 22.8484,74.11944 22.8484,74.11944 l 1.71093,-27.03779 c -0.13537,-30.04799 1.44437,-60.93651 -9.90548,-85.48848 l 24.46468,-46.1889 c 0,0 -7.9686,-15.02138 -9.39337,-23.87202 -1.5203,-9.44404 -1.67791,-18.75064 -0.91987,-27.96487 z"
     transform="translate(-136.6838,-57.00314)"
     fill="#f9a826"
     id="path64"
     style="fill:#ffc79b;fill-opacity:1"
     sodipodi:nodetypes="csssccccsc" />
  <circle
     cx="398.65244"
     cy="146.38988"
     r="35.545254"
     fill="#ffb6b6"
     id="circle60"
     style="stroke-width:1.19125;fill:#ffc79b;fill-opacity:1" />
  <polygon
     points="452.85 269.414 458.672 273.781 461.583 253.403 452.85 269.414"
     opacity="0.1"
     style="isolation:isolate"
     id="polygon62" />
  <polygon
     points="331.316 251.997 332.647 270.026 374.878 292.192 337.316 266.997 331.316 251.997"
     opacity="0.1"
     style="isolation:isolate"
     id="polygon68" />
  <path
     d="m 592.40362,286.38986 c 0,0 25.78151,2.70271 24.05785,16.011 -1.63589,12.63066 6.70363,26.97563 4.38398,41.76395 -5.09247,50.86424 0.7748,81.01429 -29.63318,120.20105 l 0.59841,-31.04945 c 1.88781,-24.70196 2.95207,-31.91595 11.27699,-62.6444 l -7.73187,-39.88787 z"
     fill="#f9a826"
     id="path72"
     style="fill:#ffc79b;fill-opacity:1"
     sodipodi:nodetypes="cscccccc"
     transform="translate(-136.6838,-57.00314)" />
  <path
     d="M453.4406,440.67752l-5.82221,149.921S422.47986,701.32826,426.8465,704.23939s6.21647,20.26918,6.21647,20.26918l24.74427,2.91107s0-11.64434,5.8222-16.011,59.67731-209.59827,59.67731-209.59827l52.53975,198.429s1.31535,11.16933,5.682,11.16933,5.8222,16.011,5.8222,16.011h24.7442v-16.011s11.11824-3.525,6.75161-15.16933-24.21816-255.56184-24.21816-255.56184Z"
     transform="translate(-136.6838 -57.00314)"
     fill="#2f2e41"
     id="path58" />
  <path
     d="m 375.85874,200.30385 -10.34127,-12.55579 -48.87292,12.61399 c 0,0 -5.46581,5.87997 -5.35758,6.81036 0.34013,2.92391 -11.50037,21.98994 -9.76304,31.15866 2.66853,14.08314 9.5858,15.82066 24.51535,24.53805 0.55569,0.32447 0.0586,1.49251 -0.0414,2.11669 -2.83718,17.69988 4.43565,58.97967 1.16487,62.25045 -8,8 -0.785,8.215 -2.3925,18.60751 -1.6075,10.39251 -8.0134,37.83062 -8.0134,37.83062 h 141.18774 c 0,0 1.13768,-17.05233 -5.82208,-20.74524 -6.95976,-3.69291 6.41582,-20.92914 0.728,-23.811 -5.68782,-2.88186 2.31221,-27.88189 2.31221,-27.88189 l 2.72464,-18.48579 9.12111,-17.57604 18.33468,-11.21126 C 483.719,225.39241 456.06384,216.52708 426.38589,193.30702 l -14.40562,9.55278 z"
     fill="#f9a826"
     id="path54-7"
     sodipodi:nodetypes="cccssssssccssccccccc" />
  <circle
     cx="408.09493"
     cy="260.29233"
     r="7.27771"
     fill="#f9a826"
     id="circle74" />
  <polygon
     points="330.514 306.41 379.316 327.997 329.158 318.194 330.514 306.41"
     opacity="0.1"
     style="isolation:isolate"
     id="polygon78" />
  <path
     d="m 362.79131,153.47361 -1.9858,-20.77624 c -1.27345,-4.8463 -5.45198,-7.58819 -5.16591,-12.59083 0.28607,-5.00264 2.40815,-10.165 6.62279,-12.87516 4.21464,-2.71017 10.17529,-14.226051 12.88735,-10.012611 0.51544,-6.72782 27.22434,-12.61355 23.38159,-7.067169 -8.57513,12.3768 0.89205,10.14749 -0.47672,4.879974 -1.69701,-6.530639 9.28701,-0.09851 15.10445,-3.517063 -14.32525,10.426369 -6.04179,5.128246 2.40446,3.754336 5.50618,-0.895662 11.25071,2.870957 10.26351,3.442358 3.00084,0.818797 6.12288,-0.82782 7.14184,-3.76673 0.0442,3.896379 -1.3959,7.663585 -4.02786,10.536995 13.33597,-17.461001 4.09961,1.73478 7.17593,6.65907 2.96887,5.14705 0.39024,10.6365 -0.0236,16.564 l -1.91083,27.36585 c -1.35199,-4.43353 -1.607,-9.11425 -2.33025,-13.69253 -0.72326,-4.57828 -2.00991,-9.25372 -5.03216,-12.76799 -1.95807,-2.27685 -16.47689,-3.08045 -21.79877,-0.80277 -2.70995,1.15981 2.46004,-3.85454 0.98054,-3.16551 -21.16769,9.85799 -16.57704,-0.0213 -18.75216,1.40416 -4.46296,2.92475 11.08557,8.39156 5.783,7.7964 -5.30257,-0.59516 -10.99628,-4.00229 -16.29805,-4.60542 -3.31951,-0.37762 -7.02407,-0.27767 -9.52868,1.9334 -1.72267,1.78988 -2.86032,4.06131 -3.26195,6.51283 -1.1823,4.88638 -1.64699,9.91884 -1.37947,14.9391"
     fill="#2f2e41"
     id="path80"
     style="stroke-width:1.19125"
     sodipodi:nodetypes="ccsscsscsccccscsssssssccc" />
  <path
     style="fill:#2f2e41;fill-opacity:1;stroke:none;stroke-width:1px;stroke-linecap:butt;stroke-linejoin:miter;stroke-opacity:1"
     d="m 386.68997,166.86506 c 2.88695,1.20685 2.52542,-4.97127 11.03798,-5.80122 2.4538,-0.23923 4.95775,0.18176 7.35924,0.73965 2.39255,0.55582 6.90584,2.57068 6.90584,2.57068 0,0 3.65114,0.41684 3.37976,-0.33048 -0.27137,-0.74735 -2.11377,-4.19151 -3.44628,-4.756 -1.33251,-0.56449 -3.5727,-1.78606 -5.49911,-2.24098 -2.3925,-0.56499 -4.89743,-0.67846 -7.35317,-0.56608 -2.30331,0.10541 -4.6469,0.38631 -6.81942,1.15865 -1.34727,0.47896 -3.73356,2.11219 -3.73356,2.11219 0,0 -2.07249,1.72212 -2.4159,2.94434 -0.3796,1.35103 -0.71015,3.62799 0.58462,4.16925 z"
     id="path1016-3"
     sodipodi:nodetypes="aaacssaaacaa" />
</svg>
