<?xml version="1.0" encoding="UTF-8" standalone="no"?>
<!-- Created with Inkscape (http://www.inkscape.org/) -->

<svg
   width="162mm"
   height="167mm"
   viewBox="0 0 162 167"
   version="1.1"
   id="svg2181"
   inkscape:version="1.1.1 (3bf5ae0d25, 2021-09-20)"
   sodipodi:docname="logo.svg"
   xmlns:inkscape="http://www.inkscape.org/namespaces/inkscape"
   xmlns:sodipodi="http://sodipodi.sourceforge.net/DTD/sodipodi-0.dtd"
   xmlns="http://www.w3.org/2000/svg"
   xmlns:svg="http://www.w3.org/2000/svg">
  <sodipodi:namedview
     id="namedview2183"
     pagecolor="#ffffff"
     bordercolor="#666666"
     borderopacity="1.0"
     inkscape:pageshadow="2"
     inkscape:pageopacity="0.0"
     inkscape:pagecheckerboard="0"
     inkscape:document-units="mm"
     showgrid="false"
     inkscape:zoom="0.36703143"
     inkscape:cx="-484.97209"
     inkscape:cy="704.29936"
     inkscape:window-width="1920"
     inkscape:window-height="1009"
     inkscape:window-x="-8"
     inkscape:window-y="-8"
     inkscape:window-maximized="1"
     inkscape:current-layer="layer1"
     inkscape:snap-global="false"
     width="209mm" />
  <defs
     id="defs2178" />
  <g
     inkscape:label="Camada 1"
     inkscape:groupmode="layer"
     id="layer1">
    <rect
       style="fill:#333333;fill-opacity:1;stroke-width:0.363292;stroke-dasharray:0.363292, 0.363292"
       id="rect1115"
       width="160.46758"
       height="168.77727"
       x="0.80551749"
       y="-1.1277033"
       inkscape:export-filename="F:\Mega\Desenvolvimento\portifólio\Art\rect1115.png"
       inkscape:export-xdpi="300"
       inkscape:export-ydpi="300"
       ry="20.184465" />
    <g
       id="g40239"
       transform="matrix(0.26458333,0,0,0.26458333,347.68679,-50.088851)"
       inkscape:export-filename="F:\Mega\Desenvolvimento\portifólio\Art\rect1115.png"
       inkscape:export-xdpi="300"
       inkscape:export-ydpi="300">
      <path
         d="m -781.70632,493.13706 a 242.88908,242.88908 0 0 1 -20.7928,98.7233 c -0.5782,1.3025 -1.1626,2.5991 -1.7652,3.8895 -0.085,0.2008 -0.1826,0.4016 -0.2739,0.6026 -0.2313,0.493 -0.4626,0.9921 -0.7,1.4851 -0.1704,0.3592 -0.3408,0.7121 -0.5174,1.0713 q -0.63,1.315 -1.2782,2.6174 -0.7122,1.4335 -1.4426,2.8608 -0.7304,1.4244 -1.4791,2.8427 -0.6574,1.2325 -1.3209,2.4591 -0.8582,1.5796 -1.7469,3.159 -0.7669,1.3513 -1.54,2.6843 -0.8309,1.4244 -1.68,2.8487 l -0.055,0.091 c -0.1217,0.2069 -0.2434,0.4139 -0.3713,0.6208 -0.1156,0.1887 -0.2252,0.3713 -0.3408,0.5601 -0.1157,0.1887 -0.2252,0.3713 -0.3409,0.5538 v 0.01 c -0.3713,0.6087 -0.7426,1.2052 -1.1139,1.8078 l -0.01,0.01 c -0.8339,1.3391 -1.686,2.6722 -2.5443,3.993 q -2.3921,3.6887 -4.9121,7.2677 c 0,0.01 -0.01,0.01 -0.012,0.012 -1.0043,1.4366 -2.033,2.8608 -3.0678,4.273 q -0.9951,1.3513 -2.0086,2.6905 -1.0135,1.3419 -2.0452,2.6599 c -0.1522,0.2009 -0.3105,0.4017 -0.4687,0.6026 -0.8765,1.12 -1.7652,2.2399 -2.6661,3.3417 -0.1948,0.2435 -0.3895,0.4808 -0.5782,0.7182 -0.2983,0.3592 -0.5905,0.7184 -0.8826,1.0713 -0.097,0.1217 -0.1948,0.2375 -0.2983,0.3592 -0.4991,0.5965 -0.9982,1.193 -1.5095,1.7895 v 0.01 q -0.7396,0.8764 -1.4974,1.7531 c -0.1096,0.1278 -0.2191,0.2556 -0.3348,0.3834 -0.1643,0.1948 -0.3348,0.3834 -0.5052,0.5782 -0.42,0.4931 -0.8522,0.9801 -1.2904,1.467 -0.01,0.01 -0.01,0.012 -0.012,0.018 l -0.018,0.018 v 0.01 a 244.5569,244.5569 0 0 1 -44.1481,39.0899 1.671879,1.671879 0 0 1 -0.1705,0.1157 c -0.2008,0.1461 -0.4017,0.28 -0.6026,0.42 -1.4547,0.9982 -2.9217,1.9843 -4.4008,2.9461 -0.7243,0.4747 -1.4487,0.9434 -2.1791,1.4061 v 0.01 c -0.01,0 -0.01,0 -0.012,0.01 h -0.012 l -0.012,0.012 -0.037,0.018 c -0.018,0.012 -0.03,0.018 -0.049,0.03 -0.56,0.3592 -1.1139,0.7122 -1.68,1.0652 -0.1704,0.1157 -0.3408,0.2192 -0.5113,0.3227 -0.2982,0.1887 -0.6026,0.3773 -0.9069,0.566 -0.2983,0.1826 -0.6026,0.3714 -0.907,0.5539 -0.3834,0.2313 -0.7669,0.4687 -1.1504,0.6939 q -1.2508,0.7579 -2.5078,1.4974 c -0.3043,0.1826 -0.6148,0.3592 -0.9252,0.5418 -0.3043,0.1764 -0.6148,0.353 -0.9252,0.5295 a 0.05594457,0.05594457 0 0 1 -0.036,0.024 l -0.012,0.01 -0.012,0.012 h -0.01 c -0.8522,0.4868 -1.6983,0.9739 -2.5565,1.4486 l -0.01,0.01 c -0.6878,0.3836 -1.3757,0.7609 -2.0696,1.1383 q -2.4652,1.3422 -4.9608,2.6356 c -1.1565,0.6027 -2.3191,1.1871 -3.4878,1.7653 -0.706,0.3529 -1.4183,0.6999 -2.1304,1.0469 -0.5904,0.2861 -1.187,0.5722 -1.7774,0.8521 -0.1644,0.079 -0.3226,0.1583 -0.4869,0.2314 -0.2679,0.1278 -0.5418,0.2556 -0.8096,0.3773 -0.2252,0.1034 -0.4444,0.207 -0.6696,0.3104 -0.5356,0.2558 -1.0773,0.4992 -1.613,0.7426 -0.6026,0.2741 -1.1991,0.5418 -1.8017,0.8096 -2.2643,1.0105 -4.553,1.9844 -6.8478,2.9217 a 238.67084,238.67084 0 0 1 -25.0962,8.6799 c -0.3957,0.1156 -0.7974,0.2313 -1.1992,0.3409 q -5.4691,1.5338 -11.0173,2.806 -9.6872,2.2277 -19.551,3.6582 c -0.012,0 -0.03,0.01 -0.043,0.01 -0.7853,0.1157 -1.5766,0.2253 -2.3618,0.3348 -0.067,0.012 -0.14,0.024 -0.213,0.03 -0.01,0.01 -0.012,0.01 -0.024,0 h -0.01 c -0.8705,0.1157 -1.7409,0.2313 -2.6174,0.3409 -0.061,0.012 -0.1217,0.018 -0.1826,0.024 -0.8156,0.097 -1.6374,0.1948 -2.459,0.2861 -0.8827,0.097 -1.76518,0.1887 -2.65388,0.28 h -0.01 c -1.3513,0.134 -2.7026,0.2618 -4.0539,0.3713 -0.024,0 -0.049,0.01 -0.073,0.01 -0.5357,0.049 -1.0713,0.085 -1.607,0.1278 h -0.01 q -9.4501,0.7488 -19.0764,0.7426 -10.4542,0 -20.6954,-0.8703 c -0.024,0 -0.049,-0.01 -0.073,-0.01 q -2.1821,-0.1826 -4.3583,-0.4017 c -0.3834,-0.037 -0.7608,-0.079 -1.1442,-0.1156 -0.073,-0.01 -0.1462,-0.012 -0.2192,-0.024 -0.1157,-0.012 -0.2313,-0.024 -0.3531,-0.036 -0.061,-0.01 -0.1279,-0.012 -0.1887,-0.024 -0.5052,-0.055 -1.0105,-0.1095 -1.5217,-0.1705 -0.5661,-0.067 -1.1383,-0.1339 -1.7043,-0.207 -0.5661,-0.067 -1.1383,-0.14 -1.7043,-0.2191 -0.1218,-0.012 -0.2495,-0.024 -0.3713,-0.049 -0.414,-0.049 -0.8279,-0.1034 -1.2357,-0.1643 -0.2009,-0.024 -0.3956,-0.055 -0.5904,-0.085 -0.3957,-0.055 -0.7852,-0.1096 -1.1809,-0.1704 -0.012,0 -0.03,-0.01 -0.043,-0.01 a 240.5236,240.5236 0 0 1 -36.6978,-8.2722 h -0.01 c -0.6514,-0.2008 -1.3028,-0.4078 -1.954,-0.6146 q -0.2921,-0.082 -0.5843,-0.1826 -2.5383,-0.8127 -5.0461,-1.68 -3.4603,-1.1872 -6.872,-2.4837 c -0.6209,-0.2375 -1.2356,-0.4748 -1.8565,-0.7122 -1.2356,-0.4869 -2.4652,-0.9739 -3.6887,-1.473 q -3.1317,-1.2783 -6.2208,-2.6356 h -0.01 v -0.01 c -1.6251,-0.7182 -3.2443,-1.4487 -4.8512,-2.2096 -0.2922,-0.134 -0.5844,-0.2678 -0.8766,-0.4078 a 0.61185991,0.61185991 0 0 1 -0.1582,-0.073 c -0.01,0 -0.01,-0.01 -0.012,-0.01 -0.42,-0.1948 -0.84,-0.3957 -1.26,-0.5965 l -0.012,-0.01 q -3.2231,-1.543 -6.3913,-3.1834 -3.926,-2.027 -7.785,-4.1999 -3.1957,-1.7987 -6.3304,-3.6948 -3.7161,-2.246 -7.353,-4.6259 -1.1322,-0.7397 -2.2643,-1.4974 c -0.6817,-0.4565 -1.3574,-0.9131 -2.0331,-1.3758 q -3.5791,-2.4469 -7.0668,-5.0217 -3.6065,-2.6568 -7.1095,-5.4477 -4.5651,-3.6339 -8.9478,-7.4747 -8.1717,-7.1398 -15.6737,-14.998 c -0.1582,-0.1644 -0.3165,-0.3287 -0.4748,-0.4992 -0.499,-0.5234 -0.9921,-1.047 -1.4851,-1.5764 -0.7183,-0.767 -1.4304,-1.5461 -2.1365,-2.3253 q -1.7531,-1.9083 -3.4452,-3.8591 h -0.01 v -0.01 c -0.6878,-0.7851 -1.3573,-1.5644 -2.0391,-2.3556 v -0.01 c -0.097,-0.1095 -0.1887,-0.2191 -0.28,-0.3286 -0.4322,-0.5053 -0.8521,-1.0044 -1.2721,-1.5157 v -0.01 c -0.5722,-0.6757 -1.1322,-1.3513 -1.68,-2.033 -0.1217,-0.1461 -0.2375,-0.2861 -0.353,-0.4322 h -0.01 v -0.01 c -0.4505,-0.5478 -0.8948,-1.1016 -1.3331,-1.6556 -0.2252,-0.2739 -0.4443,-0.5539 -0.6635,-0.834 h -0.01 v -0.01 q -1.9903,-2.5108 -3.9016,-5.0704 v -0.01 c -0.3531,-0.4687 -0.7,-0.9374 -1.0409,-1.4123 h -0.01 q -2.4469,-3.305 -4.766,-6.6895 v -0.01 q -0.8765,-1.2691 -1.7348,-2.5565 -0.8583,-1.2873 -1.6982,-2.5809 h -0.01 q -0.8674,-1.333 -1.7165,-2.6781 c -0.03,-0.049 -0.061,-0.091 -0.085,-0.1341 q -0.84,-1.3238 -1.6556,-2.666 c -0.4383,-0.7121 -0.8705,-1.4182 -1.2905,-2.1304 -0.2921,-0.4808 -0.5782,-0.9556 -0.8582,-1.4426 -0.1035,-0.1644 -0.1948,-0.3286 -0.2861,-0.4869 -0.6452,-1.1017 -1.2782,-2.2035 -1.9113,-3.3112 -0.7365,-1.3027 -1.4669,-2.6173 -2.1791,-3.9322 -0.2922,-0.5417 -0.5844,-1.0895 -0.8705,-1.6374 -0.1034,-0.1765 -0.1947,-0.3529 -0.286,-0.5357 -0.3409,-0.6451 -0.6818,-1.2904 -1.0166,-1.9417 -0.3347,-0.6452 -0.6695,-1.2964 -0.9982,-1.9478 -0.3287,-0.6513 -0.6574,-1.3025 -0.98,-1.9599 -0.2435,-0.4931 -0.4869,-0.9921 -0.7244,-1.4852 a 1.3155101,1.3155101 0 0 1 -0.067,-0.1279 c -0.1096,-0.2313 -0.2253,-0.4565 -0.3287,-0.6878 a 0.40149103,0.40149103 0 0 1 -0.055,-0.1157 c -0.2495,-0.5113 -0.493,-1.0166 -0.7304,-1.5278 -0.3165,-0.6574 -0.6209,-1.3208 -0.9252,-1.9843 -0.2192,-0.4626 -0.4261,-0.9313 -0.6392,-1.3999 q -0.4565,-0.9862 -0.8947,-1.9905 c -0.3105,-0.6877 -0.6087,-1.3817 -0.907,-2.0756 -0.079,-0.1765 -0.1521,-0.3469 -0.2251,-0.5235 -0.1401,-0.3165 -0.274,-0.6331 -0.4078,-0.9496 -0.3592,-0.8399 -0.7122,-1.692 -1.0592,-2.5381 q -0.5934,-1.4334 -1.1565,-2.8731 -0.5388,-1.3421 -1.0469,-2.6904 l -0.1278,-0.3287 v -0.01 a 243.01097,243.01097 0 0 1 -11.9548,-42.8882 v -0.01 a 243.39466,243.39466 0 0 1 -3.2382,-25.2484 c -0.037,-0.4626 -0.067,-0.9252 -0.097,-1.3878 q -0.6025,-8.5918 -0.5905,-17.2503 0,-3.8438 0.1218,-7.6513 a 242.95509,242.95509 0 0 1 53.8568,-145.4522 q 2.2005,-2.7298 4.48,-5.3929 2.5017,-2.9217 5.0886,-5.7643 1.7895,-1.9721 3.6217,-3.8957 a 0.82514441,0.82514441 0 0 1 0.073,-0.073 q 0.1918,-0.21 0.4018,-0.4202 a 243.22429,243.22429 0 0 1 23.8301,-21.8457 c 0.9618,-0.7792 1.9235,-1.54 2.8974,-2.2887 0.8643,-0.6756 1.7287,-1.3452 2.5991,-1.9965 q 1.5156,-1.1504 3.0495,-2.2704 7.9891,-5.8525 16.4528,-11.0537 3.5335,-2.1729 7.1461,-4.2243 c 0.8765,-0.5052 1.7651,-0.9983 2.6538,-1.4914 1.2052,-0.6634 2.4105,-1.3208 3.6279,-1.96 a 244.43597,244.43597 0 0 1 234.15038,3.1652 c 0.1705,0.091 0.3409,0.1887 0.5052,0.2862 1.047,0.5965 2.0878,1.193 3.1226,1.8078 q 2.0269,1.187 4.0234,2.4165 10.0799,6.1995 19.5024,13.3241 c 0.9739,0.7366 1.9478,1.479 2.9096,2.234 0.8704,0.6755 1.7347,1.3635 2.593,2.0512 0.4687,0.3775 0.9434,0.7609 1.4121,1.1444 a 244.93144,244.93144 0 0 1 28.651,27.4762 l 0.012,0.012 c 0.1339,0.1522 0.2678,0.2983 0.3956,0.4505 0.42,0.4747 0.84,0.9556 1.2539,1.4304 0.055,0.061 0.1096,0.1279 0.1644,0.1887 q 0.913,1.05 1.8139,2.1183 a 244.81262,244.81262 0 0 1 20.0806,27.3422 q 3.3782,5.3137 6.4643,10.8225 a 242.90602,242.90602 0 0 1 31.2135,119.5099 z"
         fill="#3f3d56"
         id="path2-6"
         style="fill:#333333;fill-opacity:1;stroke-width:0.608689" />
      <path
         d="m -854.07382,244.87891 14.6086,395.45805 v 0.01 q -0.7396,1.0208 -1.4974,2.0415 c -0.2739,0.3758 -0.5539,0.7445 -0.84,1.1202 -0.42,0.5742 -0.8522,1.1412 -1.2904,1.7084 -0.01,0.01 -0.01,0.014 -0.012,0.021 l -0.018,0.021 v 0.01 a 261.19377,261.19377 0 0 1 -44.1482,45.5262 v 0.1559 l -0.1705,-0.021 c -0.2008,0.1701 -0.4017,0.3263 -0.6026,0.4893 -1.4547,1.1625 -2.9217,2.3108 -4.4008,3.431 q -1.0865,0.8294 -2.1791,1.6376 v 0.01 c -0.01,0 -0.01,0 -0.012,0.01 h -0.012 l -0.012,0.014 -0.036,0.021 c -0.018,0.014 -0.031,0.021 -0.049,0.036 -0.56,0.4182 -1.1139,0.8294 -1.68,1.2406 -0.1704,0.1347 -0.3409,0.2551 -0.5113,0.3756 -0.2983,0.2198 -0.6026,0.4396 -0.907,0.6594 -0.2982,0.2125 -0.6026,0.4323 -0.9069,0.645 -1.2113,0.8649 -2.4348,1.7155 -3.6582,2.552 -0.3044,0.2127 -0.6148,0.4183 -0.9252,0.631 -0.3044,0.2056 -0.6148,0.4113 -0.9252,0.6169 v 0.021 l -0.037,0.01 -0.012,0.01 -0.012,0.014 h -0.01 c -0.8522,0.5672 -1.6982,1.1343 -2.5565,1.6873 l -0.01,0.01 c -0.6878,0.4465 -1.3756,0.8861 -2.0695,1.3255 -1.6435,1.0421 -3.2991,2.0702 -4.9608,3.0696 -1.1565,0.7018 -2.3191,1.3824 -3.4878,2.0558 -0.7061,0.4112 -1.4183,0.8154 -2.1304,1.2193 -0.5904,0.3334 -1.187,0.6664 -1.7774,0.9926 -0.1643,0.092 -0.3226,0.1843 -0.4869,0.2693 -0.2679,0.149 -0.5418,0.2978 -0.8096,0.4396 h -206.34558 c -0.2921,-0.1559 -0.5843,-0.3121 -0.8765,-0.4751 a 0.57155863,0.57155863 0 0 1 -0.1582,-0.085 c -0.01,0 -0.01,-0.01 -0.012,-0.01 -0.42,-0.2269 -0.84,-0.4607 -1.26,-0.6947 l -0.012,-0.01 q -3.223,-1.797 -6.3912,-3.7076 -7.1856,-4.3173 -14.1155,-9.1945 -3.716,-2.6158 -7.353,-5.3878 -1.1321,-0.8613 -2.2643,-1.7439 c -0.6817,-0.5317 -1.3574,-1.0634 -2.033,-1.6021 q -3.5791,-2.8498 -7.0669,-5.8485 -3.6065,-3.0943 -7.1095,-6.3447 -4.5651,-4.2322 -8.9477,-8.7055 -8.1716,-8.3155 -15.6737,-17.4674 c -0.1583,-0.1914 -0.3165,-0.3828 -0.4748,-0.5813 q -1.8351,-2.2439 -3.6217,-4.5441 l 12.1738,-403.12848 a 19.578561,19.578561 0 0 1 1.3208,-7.16006 c 1.8505,-4.67869 5.46,-7.86164 9.6051,-7.86164 h 318.22868 c 4.1999,0 7.846,3.26105 9.672,8.03895 0.061,0.15607 0.1157,0.31201 0.1705,0.46796 a 19.6711,19.6711 0 0 1 1.0834,6.51486 z"
         fill="#3f3d56"
         id="path4-0"
         style="fill:#333333;fill-opacity:1;stroke-width:0.608689" />
      <ellipse
         cx="-1153.853"
         cy="256.41293"
         rx="16.434593"
         ry="19.140549"
         fill="#ffffff"
         id="ellipse6-1"
         style="stroke-width:0.608689" />
      <path
         d="m -979.77052,307.71116 c -27.70708,7.2881 -58.40688,11.7214 -89.62248,12.9353 a 112.21961,112.21961 0 0 1 -13.7313,-0.093 c -10.045,-0.8449 -18.6493,-4.002 -28.2319,-5.7273 -4.6067,-0.8271 -9.7382,-1.4319 -14.376,-2.3256 q 1.6075,-1.9944 3.2727,-3.9398 c 10.0005,0.8449 20.1567,3.6107 30.2773,4.8958 17.2041,2.1877 36.4804,-0.2535 49.5226,-6.2743 6.3276,-2.9214 11.1744,-6.5677 17.4799,-9.5024 a 8.1462627,8.1462627 0 0 1 2.7435,-0.8405 c 1.9966,-0.1823 3.7485,0.6225 5.1759,1.3429 10.5787,5.3404 25.93738,9.6804 40.19338,7.2925 1.0628,0.8316 -0.956,1.7787 -2.7036,2.2367 z"
         fill="#ffffff"
         id="path8-6"
         style="stroke-width:0.608689" />
      <path
         d="m -985.13412,374.42246 c 0.1781,-0.032 0.3569,-0.058 0.5352,-0.089 a 14.549825,14.549825 0 0 1 -2.1089,-1.5889 z"
         fill="#ffffff"
         id="path10-9"
         style="stroke-width:0.608689" />
      <path
         d="m -868.31472,388.84526 q -12.2255,0.9769 -24.5788,1.4547 a 154.84126,154.84126 0 0 1 -18.7964,-0.1278 c -13.7502,-1.1626 -25.5284,-5.4782 -38.6456,-7.8399 -12.0216,-2.1608 -26.6301,-3.2017 -34.2631,-7.9982 19.7276,-3.4147 40.1674,3.5365 60.5098,6.1235 a 144.48793,144.48793 0 0 0 49.3098,-2.4348 q 3.3783,5.3139 6.4643,10.8225 z"
         fill="#ffffff"
         id="path12-5"
         style="stroke-width:0.608689" />
      <path
         d="m -1038.086,535.33126 v -5.8308 a 8.7322472,8.7322472 0 0 0 -8.2269,-8.7135 v -22.7707 h -1.9357 v 22.7449 h -8.7109 v 14.518 h -41.1342 v 166.9568 h 90.9794 v -134.1732 a 32.783069,32.783069 0 0 0 -30.9717,-32.7315 z"
         fill="#2f2e41"
         id="path14-1"
         style="fill:#1a1a1a;stroke-width:0.608689" />
      <rect
         x="-1083.0918"
         y="558.99182"
         width="12.098319"
         height="9.6786547"
         fill="#ffffff"
         id="rect16-6"
         style="stroke-width:0.608689" />
      <rect
         x="-1063.2506"
         y="558.99182"
         width="12.098319"
         height="9.6786547"
         fill="#ffffff"
         id="rect18-0"
         style="stroke-width:0.608689" />
      <rect
         x="-1043.4093"
         y="558.99182"
         width="12.098319"
         height="9.6786547"
         fill="#ffffff"
         id="rect20-4"
         style="stroke-width:0.608689" />
      <rect
         x="-1083.0918"
         y="583.67249"
         width="12.098319"
         height="9.6786547"
         fill="#ffffff"
         id="rect22-2"
         style="stroke-width:0.608689" />
      <rect
         x="-1063.2506"
         y="583.67249"
         width="12.098319"
         height="9.6786547"
         fill="#ffffff"
         id="rect24-5"
         style="stroke-width:0.608689" />
      <rect
         x="-1043.4093"
         y="583.67249"
         width="12.098319"
         height="9.6786547"
         fill="#ffffff"
         id="rect26-1"
         style="stroke-width:0.608689" />
      <rect
         x="-1083.0918"
         y="608.35303"
         width="12.098319"
         height="9.6786547"
         fill="#ffffff"
         id="rect28-1"
         style="stroke-width:0.608689" />
      <rect
         x="-1063.2506"
         y="608.35303"
         width="12.098319"
         height="9.6786547"
         fill="#ffffff"
         id="rect30-2"
         style="stroke-width:0.608689" />
      <rect
         x="-1043.4093"
         y="608.35303"
         width="12.098319"
         height="9.6786547"
         fill="#ffffff"
         id="rect32-5"
         style="stroke-width:0.608689" />
      <rect
         x="-1083.0918"
         y="633.03357"
         width="12.098319"
         height="9.6786547"
         fill="#ffffff"
         id="rect34-4"
         style="stroke-width:0.608689" />
      <rect
         x="-1063.2506"
         y="633.03357"
         width="12.098319"
         height="9.6786547"
         fill="#ffffff"
         id="rect36-6"
         style="stroke-width:0.608689" />
      <rect
         x="-1043.4093"
         y="633.03357"
         width="12.098319"
         height="9.6786547"
         fill="#ffffff"
         id="rect38-6"
         style="stroke-width:0.608689" />
      <rect
         x="-1083.0918"
         y="657.71423"
         width="12.098319"
         height="9.6786547"
         fill="#ffffff"
         id="rect40-2"
         style="stroke-width:0.608689" />
      <rect
         x="-1063.2506"
         y="657.71423"
         width="12.098319"
         height="9.6786547"
         fill="#ffffff"
         id="rect42-2"
         style="stroke-width:0.608689" />
      <rect
         x="-1043.4093"
         y="657.71423"
         width="12.098319"
         height="9.6786547"
         fill="#ffffff"
         id="rect44-8"
         style="stroke-width:0.608689" />
      <rect
         x="-1083.0918"
         y="682.39478"
         width="12.098319"
         height="9.6786547"
         fill="#ffffff"
         id="rect46-9"
         style="stroke-width:0.608689" />
      <rect
         x="-1063.2506"
         y="682.39478"
         width="12.098319"
         height="9.6786547"
         fill="#ffffff"
         id="rect48-4"
         style="stroke-width:0.608689" />
      <rect
         x="-1043.4093"
         y="682.39478"
         width="12.098319"
         height="9.6786547"
         fill="#ffffff"
         id="rect50-2"
         style="stroke-width:0.608689" />
      <path
         d="m -1095.5827,486.75796 v 215.4758 h -56.2003 q -3.7161,-2.246 -7.353,-4.6259 -1.1322,-0.7396 -2.2643,-1.4974 c -0.6817,-0.4565 -1.3574,-0.913 -2.0331,-1.3758 q -3.5791,-2.4469 -7.0668,-5.0217 -3.6065,-2.6568 -7.1095,-5.4477 -4.5651,-3.6339 -8.9478,-7.4747 v -222.8165 h 16.2094 v -25.8875 h 16.4529 v -24.6823 h 1.9356 v 24.6823 h 12.0703 a 8.7413775,8.7413775 0 0 1 8.7408,8.7407 v 17.1468 h 2.7817 a 32.797793,32.797793 0 0 1 31.4388,23.4588 33.852669,33.852669 0 0 1 0.8521,3.6279 33.161594,33.161594 0 0 1 0.4932,5.6972 z"
         fill="#2f2e41"
         id="path52-8"
         style="fill:#2b2b2b;fill-opacity:1;stroke-width:0.608689" />
      <rect
         x="-1160.6697"
         y="473.57773"
         width="39.198559"
         height="2.9035969"
         fill="#ffffff"
         id="rect54-6"
         style="stroke-width:0.608689" />
      <rect
         x="-1160.6697"
         y="491.48325"
         width="39.198559"
         height="2.9035969"
         fill="#ffffff"
         id="rect56-6"
         style="stroke-width:0.608689" />
      <rect
         x="-1160.6697"
         y="509.38876"
         width="39.198559"
         height="2.9035969"
         fill="#ffffff"
         id="rect58-7"
         style="stroke-width:0.608689" />
      <rect
         x="-1160.6697"
         y="527.29431"
         width="39.198559"
         height="2.9035969"
         fill="#ffffff"
         id="rect60-7"
         style="stroke-width:0.608689" />
      <rect
         x="-1160.6697"
         y="545.19983"
         width="39.198559"
         height="2.9035969"
         fill="#ffffff"
         id="rect62-4"
         style="stroke-width:0.608689" />
      <rect
         x="-1160.6697"
         y="563.10535"
         width="39.198559"
         height="2.9035969"
         fill="#ffffff"
         id="rect64-3"
         style="stroke-width:0.608689" />
      <rect
         x="-1160.6697"
         y="581.01086"
         width="39.198559"
         height="2.9035969"
         fill="#ffffff"
         id="rect66-3"
         style="stroke-width:0.608689" />
      <rect
         x="-1160.6697"
         y="598.91638"
         width="39.198559"
         height="2.9035969"
         fill="#ffffff"
         id="rect68-1"
         style="stroke-width:0.608689" />
      <rect
         x="-1160.6697"
         y="616.8219"
         width="39.198559"
         height="2.9035969"
         fill="#ffffff"
         id="rect70-6"
         style="stroke-width:0.608689" />
      <rect
         x="-1160.6697"
         y="634.72742"
         width="39.198559"
         height="2.9035969"
         fill="#ffffff"
         id="rect72-2"
         style="stroke-width:0.608689" />
      <rect
         x="-1160.6697"
         y="652.63293"
         width="39.198559"
         height="2.9035969"
         fill="#ffffff"
         id="rect74-9"
         style="stroke-width:0.608689" />
      <rect
         x="-1160.6697"
         y="670.53845"
         width="39.198559"
         height="2.9035969"
         fill="#ffffff"
         id="rect76-2"
         style="stroke-width:0.608689" />
      <rect
         x="-1156.7982"
         y="433.41135"
         width="12.098319"
         height="9.6786547"
         fill="#ffffff"
         id="rect78-8"
         style="stroke-width:0.608689" />
      <path
         d="m -855.15672,238.36448 c -0.055,-0.15844 -0.1096,-0.31062 -0.1705,-0.46869 -1.826,-4.77827 -5.4721,-8.04078 -9.672,-8.04078 h -318.22868 c -4.1451,0 -7.7547,3.18344 -9.605,7.8642 a 19.583047,19.583047 0 0 0 -1.3209,7.15817 l -12.1737,412.51438 c 0.706,0.7791 1.4182,1.5582 2.1365,2.3252 0.4929,0.5295 0.986,1.0531 1.4851,1.5764 l 12.1738,-416.41598 a 13.1682,13.1682 0 0 1 0.4626,-3.49387 0.17787099,0.17787099 0 0 1 0.012,-0.0548 c 1.0469,-3.78604 3.713,-6.48253 6.8294,-6.48253 h 318.22868 a 5.4055447,5.4055447 0 0 1 2.1669,0.45651 c 2.8487,1.21738 4.9486,4.76001 5.1191,9.01462 0.01,0.18869 0.012,0.37136 0.012,0.56005 l 14.6086,400.3345 c 0.4382,-0.566 0.8704,-1.132 1.2904,-1.7043 0.1583,-0.207 0.3104,-0.4139 0.4626,-0.6148 0.1278,-0.1704 0.2556,-0.3346 0.3774,-0.5053 q 0.7578,-1.0224 1.4974,-2.0451 v -0.01 l -14.6086,-395.45883 a 19.669384,19.669384 0 0 0 -1.0834,-6.51297 z m -282.51088,471.76398 q 3.1682,1.6435 6.3913,3.1834 l 0.012,0.01 c 0.4201,0.2008 0.84,0.4017 1.2601,0.5965 0.01,0 0.01,0.01 0.012,0.01 a 0.61185991,0.61185991 0 0 0 0.1583,0.073 c 0.2922,0.14 0.5843,0.2739 0.8765,0.4078 h 206.34558 c 0.2678,-0.1217 0.5417,-0.2495 0.8095,-0.3773 0.1643,-0.073 0.3226,-0.1521 0.487,-0.2314 0.5904,-0.28 1.1869,-0.566 1.7774,-0.8521 0.7121,-0.347 1.4243,-0.694 2.1304,-1.0469 1.1686,-0.5783 2.3313,-1.1626 3.4878,-1.7653 z"
         fill="#2f2e41"
         id="path80-8"
         style="fill:#1a1a1a;stroke-width:0.608689" />
      <rect
         x="-1192.3431"
         y="280.80667"
         width="336.45401"
         height="4.2243962"
         fill="#2f2e41"
         id="rect82-3"
         style="fill:#2b2b2b;fill-opacity:1;stroke-width:0.608689" />
      <rect
         x="-1195.7728"
         y="333.1539"
         width="344.51776"
         height="4.2243962"
         fill="#2f2e41"
         id="rect84-6"
         style="fill:#2b2b2b;fill-opacity:1;stroke-width:0.608689" />
      <polygon
         points="233.409,3.116 213.409,304.38 207.45,304.38 227.45,3.116 "
         fill="#2f2e41"
         id="polygon86-4"
         transform="matrix(0.60868864,0,0,0.60868864,-1269.8748,229.85501)"
         style="fill:#2b2b2b;fill-opacity:1" />
      <polygon
         points="580.052,3.116 604.052,306.38 598.093,306.38 574.093,3.116 "
         fill="#2f2e41"
         id="polygon88-7"
         transform="matrix(0.60868864,0,0,0.60868864,-1269.8748,229.85501)"
         style="fill:#2b2b2b;fill-opacity:1" />
      <rect
         x="-1195.1642"
         y="410.18283"
         width="345.73514"
         height="12.090601"
         fill="#2f2e41"
         id="rect90-4"
         style="fill:#2b2b2b;fill-opacity:1;stroke-width:0.608689" />
      <path
         d="m -1021.6731,403.51216 h 3.6272 a 6.649826,6.649826 0 0 1 6.6498,6.6498 v 0 h -16.9269 v 0 a 6.649826,6.649826 0 0 1 6.6499,-6.6498 z"
         fill="#2f2e41"
         id="path92-1"
         style="fill:#2b2b2b;fill-opacity:1;stroke-width:0.608689" />
      <path
         d="m -1144.6431,695.73306 c -5.4782,5.4782 -5.0521,7.7607 -7.1399,6.5007 q -3.7161,-2.246 -7.353,-4.6259 -1.1322,-0.7396 -2.2643,-1.4974 c -0.6817,-0.4565 -1.3574,-0.913 -2.0331,-1.3758 q -3.5791,-2.4469 -7.0668,-5.0217 -3.6065,-2.6568 -7.1095,-5.4477 -4.5651,-3.6339 -8.9478,-7.4747 -8.1717,-7.1398 -15.6737,-14.998 c -0.1582,-0.1644 -0.3165,-0.3287 -0.4748,-0.4992 -0.499,-0.5234 -0.9921,-1.0469 -1.4851,-1.5764 l 2.4774,-8.9478 3.0434,-130.4116 0.1826,-39.2968 0.012,-3.6279 2.7026,-56.8271 0.018,-3.6278 1.5704,-76.6157 0.012,-2.9825 0.024,-4.2243 -8.4852,-8.2477 12.3564,-39.8752 0.018,-4.2243 0.1886,-39.42469 0.012,-3.21996 c 6.446,-5.86782 15.5702,-7.01818 26.7274,-5.98347 0.554,0.0548 1.12,0.10969 1.6862,0.17043 l 0.1521,2.49569 0.28,4.44939 v 0.006 l 2.1913,35.27951 v 0.012 l 0.3895,6.2147 0.2618,4.2243 0.6878,11.0537 -9.873,37.0692 0.2618,4.2243 1.9052,30.6291 0.2618,4.2244 0.5416,8.7165 2.24,36.0282 0.2252,3.6278 0.4626,7.4808 0.5783,9.2521 0.067,1.0774 0.2617,4.2242 0.7548,12.1374 0.2069,3.3842 0.9557,15.4181 0.1278,2.0573 0.055,0.8462 0.061,0.9494 0.097,1.5826 0.1278,2.0453 0.4565,7.3407 0.1888,3.08 0.1826,2.9034 0.1278,2.1 0.213,3.3843 0.1644,2.6174 0.4261,6.9024 0.1826,2.9035 0.3104,5.046 0.1886,3.0191 0.024,0.3653 0.4078,6.5738 0.1826,2.9035 0.1339,2.246 0.3592,5.7521 0.213,3.3782 0.2252,3.6217 0.1765,2.9034 0.6818,10.9443 0.2069,3.3843 0.043,0.6756 0.1826,2.9035 0.8644,13.8902 0.067,1.114 0.14,2.2704 0.037,0.633 0.9373,14.9981 0.1157,1.8382 0.067,1.0652 0.14,2.3191 0.7913,12.685 0.1825,2.9035 0.1157,1.8809 0.207,3.3843 0.6026,9.739 0.1826,2.9035 0.2982,4.8329 0.2131,3.3782 0.4199,6.7868 0.1827,2.9035 0.4808,7.779 0.2131,3.3782 0.1339,3.8469 0.1035,2.9034 z"
         fill="#cccccc"
         id="path94-0"
         style="stroke-width:0.608689" />
      <path
         d="m -841.29692,652.94826 c -0.1643,0.1948 -0.3348,0.3834 -0.5052,0.5782 -0.42,0.4931 -0.8522,0.9801 -1.2904,1.4671 -0.01,0.01 -0.01,0.012 -0.012,0.018 l -0.018,0.018 v 0.01 a 244.5569,244.5569 0 0 1 -44.1481,39.0898 1.671879,1.671879 0 0 1 -0.1705,0.1158 c -0.2008,0.1461 -0.4017,0.28 -0.6026,0.42 -1.4547,0.9982 -2.9217,1.9843 -4.4008,2.946 -0.7243,0.4747 -1.4487,0.9434 -2.1791,1.4062 v 0.01 c -0.01,0 -0.01,0 -0.012,0.01 h -0.012 l -0.012,0.012 -0.037,0.018 c -0.018,0.012 -0.03,0.018 -0.049,0.03 -0.56,0.3592 -1.1139,0.7121 -1.68,1.0652 -0.1705,0.1156 -0.3409,0.2192 -0.5113,0.3226 -0.2983,0.1888 -0.6026,0.3773 -0.907,0.566 -0.2982,0.1826 -0.6026,0.3714 -0.9069,0.5539 -0.3835,0.2314 -0.767,0.4687 -1.1504,0.694 l 0.024,-2.0087 0.036,-2.672 0.1766,-12.2835 0.6086,-9.812 3.6096,-58.0749 0.5721,-9.1913 0.1279,-2.0695 1.6252,-26.131 0.5539,-8.9721 1.2599,-20.2085 0.5661,-9.1912 0.5539,-8.8807 0.024,-0.347 0.049,-0.8279 0.03,-0.5051 v -0.01 l 0.6452,-10.3111 0.024,-0.4384 0.4565,-7.2921 v -0.012 l 0.6513,-10.5667 0.4139,-6.6347 0.4626,-7.4505 0.3713,-5.9711 0.085,-1.3695 0.2252,-3.6279 0.012,-0.146 1.4,-22.5824 0.3652,-5.886 v -0.01 l 0.3835,-6.1721 0.2618,-4.2242 0.5416,-8.6312 0.5722,-9.1791 0.2252,-3.6277 0.7974,-12.88 v -0.01 l 0.4443,-7.1705 0.4444,-7.1824 0.6574,-10.506 0.4321,-6.9999 0.2618,-4.2244 1.8991,-30.6291 0.085,-1.327 0.1826,-2.8973 0.6148,-9.9094 -13.2025,-22.6554 0.9678,-15.5581 0.2618,-4.2243 2.7756,-44.62901 0.085,-1.33303 0.1522,-2.49569 c 11.9181,-1.30862 21.6389,-0.34695 28.4136,5.81298 l 0.1887,42.64475 0.018,4.2242 3.853,46.6926 0.01,1.4304 0.018,4.2243 1.5643,79.5982 0.018,3.6278 2.6782,56.8271 0.018,3.6279 1.3878,39.2968 0.055,12.0886 6.5678,110.4466 z"
         fill="#cccccc"
         id="path96-3"
         style="stroke-width:0.608689" />
      <path
         d="m -892.44502,697.60786 c -0.7243,0.4746 -1.4487,0.9433 -2.1791,1.4061 v 0.01 c -0.01,0 -0.01,0 -0.012,0.01 h -0.012 l -0.012,0.012 -0.037,0.018 c -0.018,0.012 -0.03,0.018 -0.049,0.03 -0.56,0.3592 -1.1139,0.7121 -1.68,1.0652 -0.1704,0.1157 -0.3408,0.2192 -0.5113,0.3226 -0.2983,0.1888 -0.6026,0.3773 -0.907,0.5661 -0.2982,0.1826 -0.6025,0.3714 -0.9069,0.5538 -0.3834,0.2314 -0.767,0.4687 -1.1504,0.694 q -1.2509,0.7579 -2.5078,1.4974 c -0.3044,0.1826 -0.6148,0.3592 -0.9252,0.5418 -0.3044,0.1764 -0.6148,0.353 -0.9252,0.5295 v 0.018 l -0.037,0.01 -0.012,0.01 -0.012,0.012 h -0.01 c -0.8522,0.4868 -1.6982,0.9738 -2.5565,1.4486 l -0.01,0.01 c -0.6879,0.3835 -1.3756,0.7608 -2.0696,1.1383 q -2.4651,1.3422 -4.9607,2.6355 c -1.1565,0.6028 -2.3192,1.1871 -3.4878,1.7653 -0.7062,0.3529 -1.4183,0.6999 -2.1304,1.047 -0.5905,0.286 -1.187,0.5721 -1.7775,0.8521 -0.1643,0.079 -0.3226,0.1582 -0.4869,0.2313 -0.2678,0.1278 -0.5418,0.2556 -0.8096,0.3773 -0.2252,0.1035 -0.4443,0.2071 -0.6695,0.3105 -0.5357,0.2558 -1.0774,0.4992 -1.6131,0.7426 -0.6026,0.274 -1.1991,0.5418 -1.8017,0.8096 -2.2643,1.0105 -4.553,1.9843 -6.8477,2.9217 a 238.67084,238.67084 0 0 1 -25.0963,8.6799 c -0.3957,0.1156 -0.7974,0.2312 -1.1992,0.3409 q -5.469,1.5338 -11.0172,2.806 -9.6873,2.2277 -19.5511,3.6582 c -0.012,0 -0.03,0.01 -0.043,0.01 -0.7852,0.1156 -1.5766,0.2252 -2.3618,0.3347 -0.067,0.012 -0.14,0.024 -0.213,0.03 -0.01,0.01 -0.012,0.01 -0.024,0 h -0.01 c -0.8704,0.1156 -1.7409,0.2312 -2.6174,0.3409 -0.061,0.012 -0.1217,0.018 -0.1826,0.024 -0.8155,0.097 -1.6373,0.1947 -2.459,0.286 -0.8827,0.098 -1.76518,0.1887 -2.65388,0.28 h -0.01 c -1.3512,0.1341 -2.7025,0.2618 -4.0538,0.3714 -0.024,0 -0.049,0.01 -0.073,0.01 -0.5357,0.049 -1.0714,0.085 -1.607,0.1278 h -0.01 q -9.4501,0.7488 -19.0764,0.7426 -10.4542,0 -20.6954,-0.8704 c -0.024,0 -0.049,-0.01 -0.073,-0.01 q -2.1821,-0.1826 -4.3583,-0.4017 c -0.3834,-0.037 -0.7608,-0.079 -1.1442,-0.1156 -0.073,-0.01 -0.1462,-0.012 -0.2192,-0.024 -0.1157,-0.012 -0.2313,-0.024 -0.3531,-0.036 -0.061,-0.01 -0.1279,-0.012 -0.1887,-0.024 -0.5052,-0.055 -1.0105,-0.1096 -1.5217,-0.1705 -0.5661,-0.067 -1.1383,-0.1339 -1.7043,-0.207 -0.5661,-0.067 -1.1383,-0.14 -1.7043,-0.2191 -0.1218,-0.012 -0.2495,-0.024 -0.3713,-0.049 -0.414,-0.049 -0.8279,-0.1034 -1.2357,-0.1643 -0.2009,-0.024 -0.3956,-0.055 -0.5904,-0.085 -0.3957,-0.055 -0.7852,-0.1095 -1.1809,-0.1704 -0.012,0 -0.03,-0.01 -0.043,-0.01 a 240.5236,240.5236 0 0 1 -36.6978,-8.2721 h -0.01 c -0.6514,-0.2008 -1.3028,-0.4078 -1.954,-0.6146 q -0.2921,-0.082 -0.5843,-0.1826 -2.5383,-0.8127 -5.0461,-1.68 -3.4603,-1.1872 -6.872,-2.4837 c -0.6209,-0.2375 -1.2356,-0.4748 -1.8565,-0.7122 -1.2356,-0.4869 -2.4652,-0.9739 -3.6887,-1.473 q -3.1317,-1.2783 -6.2208,-2.6356 h -0.01 v -0.01 c -1.6251,-0.7182 -3.2443,-1.4487 -4.8512,-2.2096 -0.2922,-0.134 -0.5844,-0.2678 -0.8766,-0.4078 a 0.61185991,0.61185991 0 0 1 -0.1582,-0.073 c -0.01,0 -0.01,-0.01 -0.012,-0.01 -0.42,-0.1948 -0.84,-0.3957 -1.26,-0.5965 l -0.012,-0.01 q -3.2231,-1.543 -6.3913,-3.1834 -3.926,-2.027 -7.785,-4.1999 -3.1957,-1.7987 -6.3304,-3.6948 -3.7161,-2.246 -7.353,-4.6259 z"
         fill="#2f2e41"
         id="path98-6"
         style="fill:#2b2b2b;fill-opacity:1;stroke-width:0.608689" />
      <ellipse
         cx="-1113.0708"
         cy="261.37521"
         rx="1.2173773"
         ry="1.4178184"
         fill="#ffffff"
         id="ellipse100-3"
         style="stroke-width:0.608689" />
      <ellipse
         cx="-1039.1044"
         cy="263.13364"
         rx="1.2173773"
         ry="1.4178184"
         fill="#ffffff"
         id="ellipse102-6"
         style="stroke-width:0.608689" />
      <ellipse
         cx="-993.45258"
         cy="264.55142"
         rx="1.2173773"
         ry="1.4178184"
         fill="#ffffff"
         id="ellipse104-7"
         style="stroke-width:0.608689" />
      <circle
         cx="-929.24677"
         cy="444.11557"
         r="1.2173773"
         fill="#ffffff"
         id="circle106-9"
         style="stroke-width:0.608689" />
      <circle
         cx="-1003.1916"
         cy="375.62619"
         r="1.2173773"
         fill="#ffffff"
         id="circle108-5"
         style="stroke-width:0.608689" />
      <circle
         cx="-1064.3757"
         cy="438.02866"
         r="1.2173773"
         fill="#ffffff"
         id="circle110-7"
         style="stroke-width:0.608689" />
      <circle
         cx="-1074.7235"
         cy="374.11642"
         r="1.2173773"
         fill="#ffffff"
         id="circle112-0"
         style="stroke-width:0.608689" />
      <circle
         cx="-1156.2877"
         cy="361.33395"
         r="1.2173773"
         fill="#ffffff"
         id="circle114-4"
         style="stroke-width:0.608689" />
      <rect
         x="-895.60022"
         y="586.92682"
         width="1.2172374"
         height="66.933708"
         transform="rotate(-1.56332)"
         fill="#b3b3b3"
         id="rect116-2"
         style="stroke-width:0.608689" />
      <rect
         x="-865.47186"
         y="335.96957"
         width="1.2175051"
         height="122.92171"
         transform="rotate(-0.85119)"
         fill="#b3b3b3"
         id="rect118-4"
         style="stroke-width:0.608689" />
      <path
         d="m -906.88362,706.35086 -2.8669,-5.2226 1.4122,-0.6635 1.126,-0.5356 4.9121,-2.3192 2.9522,-1.3939 1.2174,-0.5782 0.9678,-0.4565 1.6069,2.4286 0.8096,1.2235 0.1217,0.1827 v 0.01 a 0.41763345,0.41763345 0 0 0 -0.073,0.037 c -0.018,0.012 -0.031,0.018 -0.049,0.03 -0.56,0.359 -1.1139,0.7121 -1.68,1.0652 -0.1704,0.1156 -0.3409,0.2191 -0.5113,0.3225 -0.2983,0.1887 -0.6026,0.3774 -0.907,0.5661 -0.2982,0.1826 -0.6026,0.3713 -0.9069,0.5539 -1.2113,0.7426 -2.4348,1.473 -3.6582,2.1912 -0.3044,0.1827 -0.6148,0.3592 -0.9252,0.5418 -0.3044,0.1766 -0.6148,0.3531 -0.9252,0.5297 v 0.018 l -0.037,0.01 -0.012,0.01 -0.012,0.012 h -0.01 c -0.8522,0.487 -1.6982,0.9739 -2.5565,1.4487 z"
         fill="#2f2e41"
         id="path122-9"
         style="stroke-width:0.608689" />
      <path
         d="m -1150.4256,287.60726 h -38.3474 a 4.2608205,4.2608205 0 1 1 0,-8.5216 h 38.3474 a 4.2608205,4.2608205 0 0 1 0,8.5216 z"
         fill="#2f2e41"
         id="path136-8"
         style="fill:#2b2b2b;fill-opacity:1;stroke-width:0.608689" />
      <path
         d="m -821.72482,238.60789 h -402.34328 a 4.2608205,4.2608205 0 0 1 0,-8.52164 h 402.34328 a 4.2608205,4.2608205 0 0 1 0,8.52164 z"
         fill="#2f2e41"
         id="path138-5"
         style="fill:#2b2b2b;fill-opacity:1;stroke-width:0.608689" />
      <path
         d="m -1163.8168,330.21546 h -38.3474 a 4.2608205,4.2608205 0 0 1 0,-8.5216 h 38.3474 a 4.2608205,4.2608205 0 0 1 0,8.5216 z"
         fill="#2f2e41"
         id="path140-7"
         style="fill:#2b2b2b;fill-opacity:1;stroke-width:0.608689" />
      <path
         d="m -858.25502,287.60726 h -38.3473 a 4.2608205,4.2608205 0 1 1 0,-8.5216 h 38.3473 a 4.2608205,4.2608205 0 0 1 0,8.5216 z"
         fill="#2f2e41"
         id="path142-7"
         style="fill:#2b2b2b;fill-opacity:1;stroke-width:0.608689" />
      <path
         d="m -843.03772,328.38946 h -38.3474 a 4.26085,4.26085 0 0 1 0,-8.5217 h 38.3474 a 4.26085,4.26085 0 0 1 0,8.5217 z"
         fill="#2f2e41"
         id="path144-3"
         style="fill:#2b2b2b;fill-opacity:1;stroke-width:0.608689" />
      <rect
         x="-1192.8287"
         y="325.62729"
         width="1.2175051"
         height="122.92171"
         transform="rotate(-0.85119)"
         fill="#b3b3b3"
         id="rect146-3"
         style="stroke-width:0.608689" />
      <rect
         x="-1182.7542"
         y="467.00827"
         width="1.2175051"
         height="122.92171"
         transform="rotate(-0.85119)"
         fill="#b3b3b3"
         id="rect148-9"
         style="stroke-width:0.608689" />
      <rect
         x="-1204.693"
         y="555.96136"
         width="1.2172374"
         height="66.933708"
         transform="rotate(-1.56332)"
         fill="#b3b3b3"
         id="rect150-2"
         style="stroke-width:0.608689" />
      <path
         d="m -945.39622,631.42676 v -2.3231 a 3.479179,3.479179 0 0 0 -3.2778,-3.4717 v -9.0725 h -0.7712 v 9.0622 h -3.4706 v 5.7844 h -16.3891 v 66.5201 h 36.2487 v -53.4583 a 13.061661,13.061661 0 0 0 -12.34,-13.0411 z"
         fill="#2f2e41"
         id="path152-6"
         style="fill:#2b2b2b;fill-opacity:1;stroke-width:0.608689" />
      <rect
         x="-963.3277"
         y="640.85388"
         width="4.8202968"
         height="3.8562374"
         fill="#ffffff"
         id="rect154-4"
         style="stroke-width:0.608689" />
      <rect
         x="-955.42242"
         y="640.85388"
         width="4.8202968"
         height="3.8562374"
         fill="#ffffff"
         id="rect156-6"
         style="stroke-width:0.608689" />
      <rect
         x="-947.51703"
         y="640.85388"
         width="4.8202968"
         height="3.8562374"
         fill="#ffffff"
         id="rect158-0"
         style="stroke-width:0.608689" />
      <rect
         x="-963.3277"
         y="650.68726"
         width="4.8202968"
         height="3.8562374"
         fill="#ffffff"
         id="rect160-1"
         style="stroke-width:0.608689" />
      <rect
         x="-955.42242"
         y="650.68726"
         width="4.8202968"
         height="3.8562374"
         fill="#ffffff"
         id="rect162-6"
         style="stroke-width:0.608689" />
      <rect
         x="-947.51703"
         y="650.68726"
         width="4.8202968"
         height="3.8562374"
         fill="#ffffff"
         id="rect164-7"
         style="stroke-width:0.608689" />
      <rect
         x="-963.3277"
         y="660.52075"
         width="4.8202968"
         height="3.8562374"
         fill="#ffffff"
         id="rect166-7"
         style="stroke-width:0.608689" />
      <rect
         x="-955.42242"
         y="660.52075"
         width="4.8202968"
         height="3.8562374"
         fill="#ffffff"
         id="rect168-4"
         style="stroke-width:0.608689" />
      <rect
         x="-947.51703"
         y="660.52075"
         width="4.8202968"
         height="3.8562374"
         fill="#ffffff"
         id="rect170-1"
         style="stroke-width:0.608689" />
      <rect
         x="-963.3277"
         y="670.35413"
         width="4.8202968"
         height="3.8562374"
         fill="#ffffff"
         id="rect172-1"
         style="stroke-width:0.608689" />
      <rect
         x="-955.42242"
         y="670.35413"
         width="4.8202968"
         height="3.8562374"
         fill="#ffffff"
         id="rect174-9"
         style="stroke-width:0.608689" />
      <rect
         x="-947.51703"
         y="670.35413"
         width="4.8202968"
         height="3.8562374"
         fill="#ffffff"
         id="rect176-5"
         style="stroke-width:0.608689" />
      <rect
         x="-963.3277"
         y="680.1875"
         width="4.8202968"
         height="3.8562374"
         fill="#ffffff"
         id="rect178-9"
         style="stroke-width:0.608689" />
      <rect
         x="-955.42242"
         y="680.1875"
         width="4.8202968"
         height="3.8562374"
         fill="#ffffff"
         id="rect180-7"
         style="stroke-width:0.608689" />
      <rect
         x="-947.51703"
         y="680.1875"
         width="4.8202968"
         height="3.8562374"
         fill="#ffffff"
         id="rect182-4"
         style="stroke-width:0.608689" />
      <rect
         x="-963.3277"
         y="690.02087"
         width="4.8202968"
         height="3.8562374"
         fill="#ffffff"
         id="rect184-5"
         style="stroke-width:0.608689" />
      <rect
         x="-955.42242"
         y="690.02087"
         width="4.8202968"
         height="3.8562374"
         fill="#ffffff"
         id="rect186-0"
         style="stroke-width:0.608689" />
      <rect
         x="-947.51703"
         y="690.02087"
         width="4.8202968"
         height="3.8562374"
         fill="#ffffff"
         id="rect188-4"
         style="stroke-width:0.608689" />
      <path
         d="m -981.36552,599.01366 h -1.1098 v -6.8335 a 3.4820034,3.4820034 0 0 0 -3.482,-3.482 h -4.8089 v -9.8333 h -0.7712 v 9.8334 h -6.5556 v 10.3154 h -6.45918 v 98.9125 h 36.24858 v -85.8507 a 13.06185,13.06185 0 0 0 -13.0619,-13.0618 z"
         fill="#2f2e41"
         id="path190-8"
         style="fill:#2b2b2b;fill-opacity:1;stroke-width:0.608689" />
      <rect
         x="-994.23676"
         y="606.82263"
         width="15.617757"
         height="1.1568736"
         fill="#ffffff"
         id="rect192-0"
         style="stroke-width:0.608689" />
      <rect
         x="-994.23676"
         y="613.95667"
         width="15.617757"
         height="1.1568736"
         fill="#ffffff"
         id="rect194-0"
         style="stroke-width:0.608689" />
      <rect
         x="-994.23676"
         y="621.0907"
         width="15.617757"
         height="1.1568736"
         fill="#ffffff"
         id="rect196-1"
         style="stroke-width:0.608689" />
      <rect
         x="-994.23676"
         y="628.22473"
         width="15.617757"
         height="1.1568736"
         fill="#ffffff"
         id="rect198-5"
         style="stroke-width:0.608689" />
      <rect
         x="-994.23676"
         y="635.35876"
         width="15.617757"
         height="1.1568736"
         fill="#ffffff"
         id="rect200-4"
         style="stroke-width:0.608689" />
      <rect
         x="-994.23676"
         y="642.4928"
         width="15.617757"
         height="1.1568736"
         fill="#ffffff"
         id="rect202-6"
         style="stroke-width:0.608689" />
      <rect
         x="-994.23676"
         y="649.62683"
         width="15.617757"
         height="1.1568736"
         fill="#ffffff"
         id="rect204-3"
         style="stroke-width:0.608689" />
      <rect
         x="-994.23676"
         y="656.76086"
         width="15.617757"
         height="1.1568736"
         fill="#ffffff"
         id="rect206-2"
         style="stroke-width:0.608689" />
      <rect
         x="-994.23676"
         y="663.8949"
         width="15.617757"
         height="1.1568736"
         fill="#ffffff"
         id="rect208-9"
         style="stroke-width:0.608689" />
      <rect
         x="-994.23676"
         y="671.02893"
         width="15.617757"
         height="1.1568736"
         fill="#ffffff"
         id="rect210-5"
         style="stroke-width:0.608689" />
      <rect
         x="-994.23676"
         y="678.16296"
         width="15.617757"
         height="1.1568736"
         fill="#ffffff"
         id="rect212-3"
         style="stroke-width:0.608689" />
      <rect
         x="-994.23676"
         y="685.297"
         width="15.617757"
         height="1.1568736"
         fill="#ffffff"
         id="rect214-4"
         style="stroke-width:0.608689" />
      <rect
         x="-992.69427"
         y="590.81921"
         width="4.8202968"
         height="3.8562374"
         fill="#ffffff"
         id="rect216-7"
         style="stroke-width:0.608689" />
      <path
         d="m -833.53052,637.85506 v 5.6729 c -0.8765,1.12 -1.7652,2.2401 -2.6661,3.3419 -0.1948,0.2434 -0.3895,0.4808 -0.5782,0.7182 -0.2983,0.3591 -0.5905,0.7181 -0.8826,1.0712 -0.097,0.1217 -0.1947,0.2374 -0.2983,0.359 -0.4991,0.5966 -0.9982,1.1931 -1.5095,1.7897 0,0 0.01,0.01 0,0.01 q -0.7396,0.8765 -1.4974,1.753 c -0.2739,0.3226 -0.5539,0.6391 -0.84,0.9618 -0.42,0.493 -0.8522,0.9799 -1.2904,1.4668 -0.01,0.01 -0.01,0.012 -0.012,0.018 l -0.018,0.018 v -17.1772 z"
         fill="#2f2e41"
         id="path218-4"
         style="stroke-width:0.608689" />
    </g>
    <path
       d="m 58.524882,117.43318 a 35.973877,55.380254 0 0 0 3.50023,5.54753 h 84.964398 a 35.973877,55.380254 0 0 0 3.50026,-5.54753 z"
       fill="#3f3d56"
       id="path26"
       style="fill:#ff6600;fill-opacity:1;stroke-width:0.154443"
       inkscape:export-filename="F:\Mega\Desenvolvimento\portifólio\Art\rect1115.png"
       inkscape:export-xdpi="300"
       inkscape:export-ydpi="300" />
    <path
       d="M 94.006093,98.882013 V 118.53503 H 107.7743 V 98.882013 a 0.66072138,0.66072138 0 0 0 -0.46565,-0.63236 0.6083293,0.6083293 0 0 0 -0.19737,-0.0307 H 94.671013 a 0.66364749,0.66364749 0 0 0 -0.66492,0.66302 z m 5.37314,6.752847 a 1.4698234,1.4698234 0 0 1 2.939517,0 v 2.28033 a 1.4697793,1.4697793 0 0 1 -2.939517,0 z"
       fill="#2f2e41"
       id="path28"
       style="stroke-width:0.191624"
       inkscape:export-filename="F:\Mega\Desenvolvimento\portifólio\Art\rect1115.png"
       inkscape:export-xdpi="300"
       inkscape:export-ydpi="300" />
    <path
       d="m 93.963913,117.9065 v 1.89516 a 0.37294349,0.37294349 0 0 0 0.36984,0.37176 h 13.112867 a 0.371696,0.371696 0 0 0 0.36984,-0.37176 v -1.89516 z"
       fill="#3f3d56"
       id="path30"
       style="stroke-width:0.191624"
       inkscape:export-filename="F:\Mega\Desenvolvimento\portifólio\Art\rect1115.png"
       inkscape:export-xdpi="300"
       inkscape:export-ydpi="300" />
    <path
       d="m 84.256223,120.6199 a 0.56498383,0.56498383 0 0 0 0.44458,0.2127 h 31.108317 a 0.57242844,0.57242844 0 0 0 0.55954,-0.68984 l -0.48289,-2.29375 a 0.57345939,0.57345939 0 0 0 -0.35642,-0.41583 0.55466678,0.55466678 0 0 0 -0.20313,-0.0383 H 85.181763 a 0.55462079,0.55462079 0 0 0 -0.20312,0.0383 0.57341341,0.57341341 0 0 0 -0.35642,0.41583 l -0.4829,2.29375 a 0.57198773,0.57198773 0 0 0 0.1169,0.47714 z"
       fill="#2f2e41"
       id="path36"
       style="stroke-width:0.191624"
       inkscape:export-filename="F:\Mega\Desenvolvimento\portifólio\Art\rect1115.png"
       inkscape:export-xdpi="300"
       inkscape:export-ydpi="300" />
    <rect
       x="-115.10527"
       y="-118.38284"
       width="0.95812261"
       height="0.57487357"
       rx="0.093549177"
       transform="scale(-1)"
       fill="#3f3d56"
       id="rect38-8"
       style="stroke-width:0.191624"
       inkscape:export-filename="F:\Mega\Desenvolvimento\portifólio\Art\rect1115.png"
       inkscape:export-xdpi="300"
       inkscape:export-ydpi="300" />
    <rect
       x="-113.18903"
       y="-118.38284"
       width="0.95812261"
       height="0.57487357"
       rx="0.093549177"
       transform="scale(-1)"
       fill="#3f3d56"
       id="rect40-6"
       style="stroke-width:0.191624"
       inkscape:export-filename="F:\Mega\Desenvolvimento\portifólio\Art\rect1115.png"
       inkscape:export-xdpi="300"
       inkscape:export-ydpi="300" />
    <rect
       x="-111.27277"
       y="-118.38284"
       width="0.95812261"
       height="0.57487357"
       rx="0.093549177"
       transform="scale(-1)"
       fill="#3f3d56"
       id="rect42-1"
       style="stroke-width:0.191624"
       inkscape:export-filename="F:\Mega\Desenvolvimento\portifólio\Art\rect1115.png"
       inkscape:export-xdpi="300"
       inkscape:export-ydpi="300" />
    <rect
       x="-109.35654"
       y="-118.38284"
       width="0.95812261"
       height="0.57487357"
       rx="0.093549177"
       transform="scale(-1)"
       fill="#3f3d56"
       id="rect44-2"
       style="stroke-width:0.191624"
       inkscape:export-filename="F:\Mega\Desenvolvimento\portifólio\Art\rect1115.png"
       inkscape:export-xdpi="300"
       inkscape:export-ydpi="300" />
    <rect
       x="-107.4403"
       y="-118.38284"
       width="0.95812261"
       height="0.57487357"
       rx="0.093549177"
       transform="scale(-1)"
       fill="#3f3d56"
       id="rect46-5"
       style="stroke-width:0.191624"
       inkscape:export-filename="F:\Mega\Desenvolvimento\portifólio\Art\rect1115.png"
       inkscape:export-xdpi="300"
       inkscape:export-ydpi="300" />
    <rect
       x="-105.52405"
       y="-118.38284"
       width="0.95812261"
       height="0.57487357"
       rx="0.093549177"
       transform="scale(-1)"
       fill="#3f3d56"
       id="rect48-40"
       style="stroke-width:0.191624"
       inkscape:export-filename="F:\Mega\Desenvolvimento\portifólio\Art\rect1115.png"
       inkscape:export-xdpi="300"
       inkscape:export-ydpi="300" />
    <rect
       x="-103.6078"
       y="-118.38284"
       width="0.95812261"
       height="0.57487357"
       rx="0.093549177"
       transform="scale(-1)"
       fill="#3f3d56"
       id="rect50-3"
       style="stroke-width:0.191624"
       inkscape:export-filename="F:\Mega\Desenvolvimento\portifólio\Art\rect1115.png"
       inkscape:export-xdpi="300"
       inkscape:export-ydpi="300" />
    <rect
       x="-101.69156"
       y="-118.38284"
       width="0.95812261"
       height="0.57487357"
       rx="0.093549177"
       transform="scale(-1)"
       fill="#3f3d56"
       id="rect52"
       style="stroke-width:0.191624"
       inkscape:export-filename="F:\Mega\Desenvolvimento\portifólio\Art\rect1115.png"
       inkscape:export-xdpi="300"
       inkscape:export-ydpi="300" />
    <rect
       x="-99.775314"
       y="-118.38284"
       width="0.95812261"
       height="0.57487357"
       rx="0.093549177"
       transform="scale(-1)"
       fill="#3f3d56"
       id="rect54-2"
       style="stroke-width:0.191624"
       inkscape:export-filename="F:\Mega\Desenvolvimento\portifólio\Art\rect1115.png"
       inkscape:export-xdpi="300"
       inkscape:export-ydpi="300" />
    <rect
       x="-97.859055"
       y="-118.38284"
       width="0.95812261"
       height="0.57487357"
       rx="0.093549177"
       transform="scale(-1)"
       fill="#3f3d56"
       id="rect56-1"
       style="stroke-width:0.191624"
       inkscape:export-filename="F:\Mega\Desenvolvimento\portifólio\Art\rect1115.png"
       inkscape:export-xdpi="300"
       inkscape:export-ydpi="300" />
    <rect
       x="-95.94281"
       y="-118.38284"
       width="0.95812261"
       height="0.57487357"
       rx="0.093549177"
       transform="scale(-1)"
       fill="#3f3d56"
       id="rect58-70"
       style="stroke-width:0.191624"
       inkscape:export-filename="F:\Mega\Desenvolvimento\portifólio\Art\rect1115.png"
       inkscape:export-xdpi="300"
       inkscape:export-ydpi="300" />
    <rect
       x="-94.026566"
       y="-118.38284"
       width="0.95812261"
       height="0.57487357"
       rx="0.093549177"
       transform="scale(-1)"
       fill="#3f3d56"
       id="rect60-6"
       style="stroke-width:0.191624"
       inkscape:export-filename="F:\Mega\Desenvolvimento\portifólio\Art\rect1115.png"
       inkscape:export-xdpi="300"
       inkscape:export-ydpi="300" />
    <rect
       x="-92.110313"
       y="-118.38284"
       width="0.95812261"
       height="0.57487357"
       rx="0.093549177"
       transform="scale(-1)"
       fill="#3f3d56"
       id="rect62-6"
       style="stroke-width:0.191624"
       inkscape:export-filename="F:\Mega\Desenvolvimento\portifólio\Art\rect1115.png"
       inkscape:export-xdpi="300"
       inkscape:export-ydpi="300" />
    <rect
       x="-90.194099"
       y="-118.38284"
       width="0.95812261"
       height="0.57487357"
       rx="0.093549177"
       transform="scale(-1)"
       fill="#3f3d56"
       id="rect64-2"
       style="stroke-width:0.191624"
       inkscape:export-filename="F:\Mega\Desenvolvimento\portifólio\Art\rect1115.png"
       inkscape:export-xdpi="300"
       inkscape:export-ydpi="300" />
    <rect
       x="-88.27784"
       y="-118.38284"
       width="0.95812261"
       height="0.57487357"
       rx="0.093549177"
       transform="scale(-1)"
       fill="#3f3d56"
       id="rect66-9"
       style="stroke-width:0.191624"
       inkscape:export-filename="F:\Mega\Desenvolvimento\portifólio\Art\rect1115.png"
       inkscape:export-xdpi="300"
       inkscape:export-ydpi="300" />
    <rect
       x="-86.36161"
       y="-118.38284"
       width="0.95812261"
       height="0.57487357"
       rx="0.093549177"
       transform="scale(-1)"
       fill="#3f3d56"
       id="rect68-6"
       style="stroke-width:0.191624"
       inkscape:export-filename="F:\Mega\Desenvolvimento\portifólio\Art\rect1115.png"
       inkscape:export-xdpi="300"
       inkscape:export-ydpi="300" />
    <rect
       x="-115.12791"
       y="-119.34097"
       width="0.95812261"
       height="0.57487357"
       rx="0.093549177"
       transform="scale(-1)"
       fill="#3f3d56"
       id="rect70-8"
       style="stroke-width:0.191624"
       inkscape:export-filename="F:\Mega\Desenvolvimento\portifólio\Art\rect1115.png"
       inkscape:export-xdpi="300"
       inkscape:export-ydpi="300" />
    <rect
       x="-113.21167"
       y="-119.34097"
       width="0.95812261"
       height="0.57487357"
       rx="0.093549177"
       transform="scale(-1)"
       fill="#3f3d56"
       id="rect72-1"
       style="stroke-width:0.191624"
       inkscape:export-filename="F:\Mega\Desenvolvimento\portifólio\Art\rect1115.png"
       inkscape:export-xdpi="300"
       inkscape:export-ydpi="300" />
    <rect
       x="-111.29543"
       y="-119.34097"
       width="0.95812261"
       height="0.57487357"
       rx="0.093549177"
       transform="scale(-1)"
       fill="#3f3d56"
       id="rect74-5"
       style="stroke-width:0.191624"
       inkscape:export-filename="F:\Mega\Desenvolvimento\portifólio\Art\rect1115.png"
       inkscape:export-xdpi="300"
       inkscape:export-ydpi="300" />
    <rect
       x="-109.37917"
       y="-119.34097"
       width="0.95812261"
       height="0.57487357"
       rx="0.093549177"
       transform="scale(-1)"
       fill="#3f3d56"
       id="rect76-4"
       style="stroke-width:0.191624"
       inkscape:export-filename="F:\Mega\Desenvolvimento\portifólio\Art\rect1115.png"
       inkscape:export-xdpi="300"
       inkscape:export-ydpi="300" />
    <rect
       x="-107.46291"
       y="-119.34097"
       width="0.95812261"
       height="0.57487357"
       rx="0.093549177"
       transform="scale(-1)"
       fill="#3f3d56"
       id="rect78-2"
       style="stroke-width:0.191624"
       inkscape:export-filename="F:\Mega\Desenvolvimento\portifólio\Art\rect1115.png"
       inkscape:export-xdpi="300"
       inkscape:export-ydpi="300" />
    <rect
       x="-105.5467"
       y="-119.34097"
       width="0.95812261"
       height="0.57487357"
       rx="0.093549177"
       transform="scale(-1)"
       fill="#3f3d56"
       id="rect80"
       style="stroke-width:0.191624"
       inkscape:export-filename="F:\Mega\Desenvolvimento\portifólio\Art\rect1115.png"
       inkscape:export-xdpi="300"
       inkscape:export-ydpi="300" />
    <rect
       x="-103.63045"
       y="-119.34097"
       width="0.95812261"
       height="0.57487357"
       rx="0.093549177"
       transform="scale(-1)"
       fill="#3f3d56"
       id="rect82-32"
       style="stroke-width:0.191624"
       inkscape:export-filename="F:\Mega\Desenvolvimento\portifólio\Art\rect1115.png"
       inkscape:export-xdpi="300"
       inkscape:export-ydpi="300" />
    <rect
       x="-101.7142"
       y="-119.34097"
       width="0.95812261"
       height="0.57487357"
       rx="0.093549177"
       transform="scale(-1)"
       fill="#3f3d56"
       id="rect84-4"
       style="stroke-width:0.191624"
       inkscape:export-filename="F:\Mega\Desenvolvimento\portifólio\Art\rect1115.png"
       inkscape:export-xdpi="300"
       inkscape:export-ydpi="300" />
    <rect
       x="-99.797958"
       y="-119.34097"
       width="0.95812261"
       height="0.57487357"
       rx="0.093549177"
       transform="scale(-1)"
       fill="#3f3d56"
       id="rect86"
       style="stroke-width:0.191624"
       inkscape:export-filename="F:\Mega\Desenvolvimento\portifólio\Art\rect1115.png"
       inkscape:export-xdpi="300"
       inkscape:export-ydpi="300" />
    <rect
       x="-97.881714"
       y="-119.34097"
       width="0.95812261"
       height="0.57487357"
       rx="0.093549177"
       transform="scale(-1)"
       fill="#3f3d56"
       id="rect88"
       style="stroke-width:0.191624"
       inkscape:export-filename="F:\Mega\Desenvolvimento\portifólio\Art\rect1115.png"
       inkscape:export-xdpi="300"
       inkscape:export-ydpi="300" />
    <rect
       x="-95.965469"
       y="-119.34097"
       width="0.95812261"
       height="0.57487357"
       rx="0.093549177"
       transform="scale(-1)"
       fill="#3f3d56"
       id="rect90-49"
       style="stroke-width:0.191624"
       inkscape:export-filename="F:\Mega\Desenvolvimento\portifólio\Art\rect1115.png"
       inkscape:export-xdpi="300"
       inkscape:export-ydpi="300" />
    <rect
       x="-94.04921"
       y="-119.34097"
       width="0.95812261"
       height="0.57487357"
       rx="0.093549177"
       transform="scale(-1)"
       fill="#3f3d56"
       id="rect92"
       style="stroke-width:0.191624"
       inkscape:export-filename="F:\Mega\Desenvolvimento\portifólio\Art\rect1115.png"
       inkscape:export-xdpi="300"
       inkscape:export-ydpi="300" />
    <rect
       x="-92.132965"
       y="-119.34097"
       width="0.95812261"
       height="0.57487357"
       rx="0.093549177"
       transform="scale(-1)"
       fill="#3f3d56"
       id="rect94"
       style="stroke-width:0.191624"
       inkscape:export-filename="F:\Mega\Desenvolvimento\portifólio\Art\rect1115.png"
       inkscape:export-xdpi="300"
       inkscape:export-ydpi="300" />
    <rect
       x="-90.216713"
       y="-119.34097"
       width="0.95812261"
       height="0.57487357"
       rx="0.093549177"
       transform="scale(-1)"
       fill="#3f3d56"
       id="rect96"
       style="stroke-width:0.191624"
       inkscape:export-filename="F:\Mega\Desenvolvimento\portifólio\Art\rect1115.png"
       inkscape:export-xdpi="300"
       inkscape:export-ydpi="300" />
    <rect
       x="-88.300453"
       y="-119.34097"
       width="0.95812261"
       height="0.57487357"
       rx="0.093549177"
       transform="scale(-1)"
       fill="#3f3d56"
       id="rect98"
       style="stroke-width:0.191624"
       inkscape:export-filename="F:\Mega\Desenvolvimento\portifólio\Art\rect1115.png"
       inkscape:export-xdpi="300"
       inkscape:export-ydpi="300" />
    <rect
       x="-86.384247"
       y="-119.34097"
       width="0.95812261"
       height="0.57487357"
       rx="0.093549177"
       transform="scale(-1)"
       fill="#3f3d56"
       id="rect100"
       style="stroke-width:0.191624"
       inkscape:export-filename="F:\Mega\Desenvolvimento\portifólio\Art\rect1115.png"
       inkscape:export-xdpi="300"
       inkscape:export-ydpi="300" />
    <rect
       x="-105.92992"
       y="-120.49072"
       width="7.6649809"
       height="0.57487357"
       rx="0.093549177"
       transform="scale(-1)"
       fill="#3f3d56"
       id="rect102"
       style="stroke-width:0.191624"
       inkscape:export-filename="F:\Mega\Desenvolvimento\portifólio\Art\rect1115.png"
       inkscape:export-xdpi="300"
       inkscape:export-ydpi="300" />
    <path
       d="m 86.160613,68.243747 v 35.883603 a 1.725989,1.725989 0 0 0 1.72461,1.72462 h 53.175807 a 1.7259813,1.7259813 0 0 0 1.72462,-1.72462 V 68.243747 a 1.7268187,1.7268187 0 0 0 -1.72462,-1.72271 H 87.885223 a 1.7268263,1.7268263 0 0 0 -1.72461,1.72271 z"
       fill="#3f3d56"
       id="path32"
       style="fill:#1a1a1a;fill-opacity:1;stroke-width:0.191624"
       inkscape:export-filename="F:\Mega\Desenvolvimento\portifólio\Art\rect1115.png"
       inkscape:export-xdpi="300"
       inkscape:export-ydpi="300" />
    <path
       d="M 87.408093,68.690237 V 103.6847 a 0.9233102,0.9233102 0 0 0 0.92171,0.92171 h 52.288577 a 0.92330253,0.92330253 0 0 0 0.92171,-0.92171 V 68.690237 a 0.92371838,0.92371838 0 0 0 -0.92171,-0.92364 H 88.329803 a 0.92372602,0.92372602 0 0 0 -0.92171,0.92364 z"
       fill="#f9a826"
       id="path34"
       style="fill:#1a1b1d;fill-opacity:1;stroke-width:0.191624"
       inkscape:export-filename="F:\Mega\Desenvolvimento\portifólio\Art\rect1115.png"
       inkscape:export-xdpi="300"
       inkscape:export-ydpi="300" />
    <path
       d="m 90.957323,72.587247 h 48.926237 a 0.19461195,0.19461195 0 0 0 0,-0.38913 H 90.957323 a 0.19461195,0.19461195 0 0 0 0,0.38913 z"
       fill="#3f3d56"
       id="path104"
       style="stroke-width:0.191624"
       inkscape:export-filename="F:\Mega\Desenvolvimento\portifólio\Art\rect1115.png"
       inkscape:export-xdpi="300"
       inkscape:export-ydpi="300" />
    <ellipse
       cx="136.55309"
       cy="70.039047"
       rx="1.1402483"
       ry="1.1656597"
       fill="#3f3d56"
       id="ellipse106"
       style="fill:#800000;stroke-width:0.191624"
       inkscape:export-filename="F:\Mega\Desenvolvimento\portifólio\Art\rect1115.png"
       inkscape:export-xdpi="300"
       inkscape:export-ydpi="300" />
    <ellipse
       cx="132.61406"
       cy="70.039047"
       rx="1.1402483"
       ry="1.1656597"
       fill="#3f3d56"
       id="ellipse108"
       style="fill:#ffe680;stroke-width:0.191624"
       inkscape:export-filename="F:\Mega\Desenvolvimento\portifólio\Art\rect1115.png"
       inkscape:export-xdpi="300"
       inkscape:export-ydpi="300" />
    <ellipse
       cx="128.675"
       cy="70.039047"
       rx="1.1402483"
       ry="1.1656597"
       fill="#3f3d56"
       id="ellipse110"
       style="fill:#ffb380;stroke-width:0.191624"
       inkscape:export-filename="F:\Mega\Desenvolvimento\portifólio\Art\rect1115.png"
       inkscape:export-xdpi="300"
       inkscape:export-ydpi="300" />
    <path
       d="m 93.120423,69.374327 a 0.20979053,0.20979053 0 0 0 0.20886,0.21079 h 2.79771 a 0.21180259,0.21180259 0 0 0 0,-0.42349 h -2.79771 a 0.2114385,0.2114385 0 0 0 -0.20886,0.2127 z"
       fill="#3f3d56"
       id="path112"
       style="stroke-width:0.191624"
       inkscape:export-filename="F:\Mega\Desenvolvimento\portifólio\Art\rect1115.png"
       inkscape:export-xdpi="300"
       inkscape:export-ydpi="300" />
    <path
       d="m 93.120423,70.169577 a 0.20977903,0.20977903 0 0 0 0.20886,0.21078 h 2.79771 a 0.21179684,0.21179684 0 0 0 0,-0.42349 h -2.79771 a 0.2114385,0.2114385 0 0 0 -0.20886,0.21271 z"
       fill="#3f3d56"
       id="path114"
       style="stroke-width:0.191624"
       inkscape:export-filename="F:\Mega\Desenvolvimento\portifólio\Art\rect1115.png"
       inkscape:export-xdpi="300"
       inkscape:export-ydpi="300" />
    <path
       d="m 93.120423,70.962897 a 0.2114385,0.2114385 0 0 0 0.20886,0.2127 h 2.79771 a 0.21180259,0.21180259 0 0 0 0,-0.42349 h -2.79771 a 0.20978287,0.20978287 0 0 0 -0.20886,0.21079 z"
       fill="#3f3d56"
       id="path116"
       style="stroke-width:0.191624"
       inkscape:export-filename="F:\Mega\Desenvolvimento\portifólio\Art\rect1115.png"
       inkscape:export-xdpi="300"
       inkscape:export-ydpi="300" />
    <rect
       x="92.427917"
       y="77.108932"
       width="2.1090367"
       height="1.103742"
       rx="0.551871"
       fill="#e6e6e6"
       id="rect118-8"
       style="fill:#00ff00;stroke-width:0.191624"
       inkscape:export-filename="F:\Mega\Desenvolvimento\portifólio\Art\rect1115.png"
       inkscape:export-xdpi="300"
       inkscape:export-ydpi="300" />
    <rect
       x="103.92537"
       y="77.108932"
       width="2.1090367"
       height="1.103742"
       rx="0.551871"
       fill="#e6e6e6"
       id="rect120"
       style="fill:#ff00ff;stroke-width:0.191624"
       inkscape:export-filename="F:\Mega\Desenvolvimento\portifólio\Art\rect1115.png"
       inkscape:export-xdpi="300"
       inkscape:export-ydpi="300" />
    <rect
       x="107.18298"
       y="77.108932"
       width="2.1090367"
       height="1.103742"
       rx="0.551871"
       fill="#e6e6e6"
       id="rect122"
       style="fill:#ff00ff;stroke-width:0.191624"
       inkscape:export-filename="F:\Mega\Desenvolvimento\portifólio\Art\rect1115.png"
       inkscape:export-xdpi="300"
       inkscape:export-ydpi="300" />
    <rect
       x="95.55526"
       y="77.016922"
       width="7.351809"
       height="1.103742"
       rx="0.551871"
       fill="#e6e6e6"
       id="rect124"
       style="fill:#00ff00;stroke-width:0.191624"
       inkscape:export-filename="F:\Mega\Desenvolvimento\portifólio\Art\rect1115.png"
       inkscape:export-xdpi="300"
       inkscape:export-ydpi="300" />
    <rect
       x="110.88519"
       y="77.016922"
       width="7.351809"
       height="1.103742"
       rx="0.551871"
       fill="#e6e6e6"
       id="rect126"
       style="stroke-width:0.191624"
       inkscape:export-filename="F:\Mega\Desenvolvimento\portifólio\Art\rect1115.png"
       inkscape:export-xdpi="300"
       inkscape:export-ydpi="300" />
    <rect
       x="95.493896"
       y="79.600052"
       width="2.1090367"
       height="1.103742"
       rx="0.551871"
       fill="#e6e6e6"
       id="rect128"
       style="fill:#00ff00;stroke-width:0.191624"
       inkscape:export-filename="F:\Mega\Desenvolvimento\portifólio\Art\rect1115.png"
       inkscape:export-xdpi="300"
       inkscape:export-ydpi="300" />
    <rect
       x="106.99136"
       y="79.600052"
       width="2.1090367"
       height="1.103742"
       rx="0.551871"
       fill="#e6e6e6"
       id="rect130"
       style="fill:#ff00ff;stroke-width:0.191624"
       inkscape:export-filename="F:\Mega\Desenvolvimento\portifólio\Art\rect1115.png"
       inkscape:export-xdpi="300"
       inkscape:export-ydpi="300" />
    <rect
       x="110.24898"
       y="79.600052"
       width="2.1090367"
       height="1.103742"
       rx="0.551871"
       fill="#e6e6e6"
       id="rect132"
       style="fill:#ff00ff;stroke-width:0.191624"
       inkscape:export-filename="F:\Mega\Desenvolvimento\portifólio\Art\rect1115.png"
       inkscape:export-xdpi="300"
       inkscape:export-ydpi="300" />
    <rect
       x="98.621223"
       y="79.508041"
       width="7.351809"
       height="1.103742"
       rx="0.551871"
       fill="#e6e6e6"
       id="rect134"
       style="fill:#00ff00;stroke-width:0.191624"
       inkscape:export-filename="F:\Mega\Desenvolvimento\portifólio\Art\rect1115.png"
       inkscape:export-xdpi="300"
       inkscape:export-ydpi="300" />
    <rect
       x="113.95119"
       y="79.508041"
       width="7.351809"
       height="1.103742"
       rx="0.551871"
       fill="#e6e6e6"
       id="rect136"
       style="stroke-width:0.191624"
       inkscape:export-filename="F:\Mega\Desenvolvimento\portifólio\Art\rect1115.png"
       inkscape:export-xdpi="300"
       inkscape:export-ydpi="300" />
    <rect
       x="98.559875"
       y="82.091171"
       width="2.1090367"
       height="1.103742"
       rx="0.551871"
       fill="#e6e6e6"
       id="rect138"
       style="fill:#00ff00;stroke-width:0.191624"
       inkscape:export-filename="F:\Mega\Desenvolvimento\portifólio\Art\rect1115.png"
       inkscape:export-xdpi="300"
       inkscape:export-ydpi="300" />
    <rect
       x="110.05735"
       y="82.091171"
       width="2.1090367"
       height="1.103742"
       rx="0.551871"
       fill="#e6e6e6"
       id="rect140"
       style="fill:#ff00ff;stroke-width:0.191624"
       inkscape:export-filename="F:\Mega\Desenvolvimento\portifólio\Art\rect1115.png"
       inkscape:export-xdpi="300"
       inkscape:export-ydpi="300" />
    <rect
       x="113.31496"
       y="82.091171"
       width="2.1090367"
       height="1.103742"
       rx="0.551871"
       fill="#e6e6e6"
       id="rect142"
       style="fill:#ff00ff;stroke-width:0.191624"
       inkscape:export-filename="F:\Mega\Desenvolvimento\portifólio\Art\rect1115.png"
       inkscape:export-xdpi="300"
       inkscape:export-ydpi="300" />
    <rect
       x="101.68723"
       y="81.999146"
       width="7.351809"
       height="1.103742"
       rx="0.551871"
       fill="#e6e6e6"
       id="rect144"
       style="stroke-width:0.191624"
       inkscape:export-filename="F:\Mega\Desenvolvimento\portifólio\Art\rect1115.png"
       inkscape:export-xdpi="300"
       inkscape:export-ydpi="300" />
    <rect
       x="117.0172"
       y="81.999146"
       width="7.351809"
       height="1.103742"
       rx="0.551871"
       fill="#e6e6e6"
       id="rect146-8"
       style="stroke-width:0.191624"
       inkscape:export-filename="F:\Mega\Desenvolvimento\portifólio\Art\rect1115.png"
       inkscape:export-xdpi="300"
       inkscape:export-ydpi="300" />
    <rect
       x="101.62587"
       y="84.582283"
       width="2.1090367"
       height="1.103742"
       rx="0.551871"
       fill="#e6e6e6"
       id="rect148-1"
       style="fill:#00ff00;stroke-width:0.191624"
       inkscape:export-filename="F:\Mega\Desenvolvimento\portifólio\Art\rect1115.png"
       inkscape:export-xdpi="300"
       inkscape:export-ydpi="300" />
    <rect
       x="113.12334"
       y="84.582283"
       width="2.1090367"
       height="1.103742"
       rx="0.551871"
       fill="#e6e6e6"
       id="rect150-0"
       style="fill:#ff00ff;stroke-width:0.191624"
       inkscape:export-filename="F:\Mega\Desenvolvimento\portifólio\Art\rect1115.png"
       inkscape:export-xdpi="300"
       inkscape:export-ydpi="300" />
    <rect
       x="116.38095"
       y="84.582283"
       width="2.1090367"
       height="1.103742"
       rx="0.551871"
       fill="#e6e6e6"
       id="rect152"
       style="fill:#00ffff;stroke-width:0.191624"
       inkscape:export-filename="F:\Mega\Desenvolvimento\portifólio\Art\rect1115.png"
       inkscape:export-xdpi="300"
       inkscape:export-ydpi="300" />
    <rect
       x="104.75322"
       y="84.490265"
       width="7.351809"
       height="1.103742"
       rx="0.551871"
       fill="#e6e6e6"
       id="rect154-2"
       style="stroke-width:0.191624"
       inkscape:export-filename="F:\Mega\Desenvolvimento\portifólio\Art\rect1115.png"
       inkscape:export-xdpi="300"
       inkscape:export-ydpi="300" />
    <rect
       x="103.92537"
       y="94.488037"
       width="2.1090367"
       height="1.103742"
       rx="0.551871"
       fill="#e6e6e6"
       id="rect156-3"
       style="stroke-width:0.191624"
       inkscape:export-filename="F:\Mega\Desenvolvimento\portifólio\Art\rect1115.png"
       inkscape:export-xdpi="300"
       inkscape:export-ydpi="300" />
    <rect
       x="107.18298"
       y="94.488037"
       width="2.1090367"
       height="1.103742"
       rx="0.551871"
       fill="#e6e6e6"
       id="rect158-2"
       style="stroke-width:0.191624"
       inkscape:export-filename="F:\Mega\Desenvolvimento\portifólio\Art\rect1115.png"
       inkscape:export-xdpi="300"
       inkscape:export-ydpi="300" />
    <rect
       x="110.88519"
       y="94.580048"
       width="7.351809"
       height="1.103742"
       rx="0.551871"
       fill="#e6e6e6"
       id="rect160-2"
       style="stroke-width:0.191624"
       inkscape:export-filename="F:\Mega\Desenvolvimento\portifólio\Art\rect1115.png"
       inkscape:export-xdpi="300"
       inkscape:export-ydpi="300" />
    <rect
       x="92.427917"
       y="94.488037"
       width="2.1090367"
       height="1.103742"
       rx="0.551871"
       fill="#e6e6e6"
       id="rect162-3"
       style="stroke-width:0.191624"
       inkscape:export-filename="F:\Mega\Desenvolvimento\portifólio\Art\rect1115.png"
       inkscape:export-xdpi="300"
       inkscape:export-ydpi="300" />
    <rect
       x="95.55526"
       y="94.580048"
       width="7.351809"
       height="1.103742"
       rx="0.551871"
       fill="#e6e6e6"
       id="rect164-1"
       style="stroke-width:0.191624"
       inkscape:export-filename="F:\Mega\Desenvolvimento\portifólio\Art\rect1115.png"
       inkscape:export-xdpi="300"
       inkscape:export-ydpi="300" />
    <rect
       x="95.493896"
       y="91.996918"
       width="2.1090367"
       height="1.103742"
       rx="0.551871"
       fill="#e6e6e6"
       id="rect166-5"
       style="fill:#00ffff;stroke-width:0.191624"
       inkscape:export-filename="F:\Mega\Desenvolvimento\portifólio\Art\rect1115.png"
       inkscape:export-xdpi="300"
       inkscape:export-ydpi="300" />
    <rect
       x="106.99136"
       y="91.996918"
       width="2.1090367"
       height="1.103742"
       rx="0.551871"
       fill="#e6e6e6"
       id="rect168-7"
       style="fill:#00ffff;stroke-width:0.191624"
       inkscape:export-filename="F:\Mega\Desenvolvimento\portifólio\Art\rect1115.png"
       inkscape:export-xdpi="300"
       inkscape:export-ydpi="300" />
    <rect
       x="110.24898"
       y="91.996918"
       width="2.1090367"
       height="1.103742"
       rx="0.551871"
       fill="#e6e6e6"
       id="rect170-16"
       style="stroke-width:0.191624"
       inkscape:export-filename="F:\Mega\Desenvolvimento\portifólio\Art\rect1115.png"
       inkscape:export-xdpi="300"
       inkscape:export-ydpi="300" />
    <rect
       x="98.621223"
       y="92.088928"
       width="7.351809"
       height="1.103742"
       rx="0.551871"
       fill="#e6e6e6"
       id="rect172-2"
       style="stroke-width:0.191624"
       inkscape:export-filename="F:\Mega\Desenvolvimento\portifólio\Art\rect1115.png"
       inkscape:export-xdpi="300"
       inkscape:export-ydpi="300" />
    <rect
       x="98.559875"
       y="89.505798"
       width="2.1090367"
       height="1.103742"
       rx="0.551871"
       fill="#e6e6e6"
       id="rect174-4"
       style="fill:#00ffff;stroke-width:0.191624"
       inkscape:export-filename="F:\Mega\Desenvolvimento\portifólio\Art\rect1115.png"
       inkscape:export-xdpi="300"
       inkscape:export-ydpi="300" />
    <rect
       x="110.05735"
       y="89.505798"
       width="2.1090367"
       height="1.103742"
       rx="0.551871"
       fill="#e6e6e6"
       id="rect176-8"
       style="fill:#ff00ff;stroke-width:0.191624"
       inkscape:export-filename="F:\Mega\Desenvolvimento\portifólio\Art\rect1115.png"
       inkscape:export-xdpi="300"
       inkscape:export-ydpi="300" />
    <rect
       x="113.31496"
       y="89.505798"
       width="2.1090367"
       height="1.103742"
       rx="0.551871"
       fill="#e6e6e6"
       id="rect178-7"
       style="stroke-width:0.191624"
       inkscape:export-filename="F:\Mega\Desenvolvimento\portifólio\Art\rect1115.png"
       inkscape:export-xdpi="300"
       inkscape:export-ydpi="300" />
    <rect
       x="101.68723"
       y="89.597809"
       width="7.351809"
       height="1.103742"
       rx="0.551871"
       fill="#e6e6e6"
       id="rect180-0"
       style="stroke-width:0.191624"
       inkscape:export-filename="F:\Mega\Desenvolvimento\portifólio\Art\rect1115.png"
       inkscape:export-xdpi="300"
       inkscape:export-ydpi="300" />
    <rect
       x="101.62587"
       y="87.014679"
       width="2.1090367"
       height="1.103742"
       rx="0.551871"
       fill="#e6e6e6"
       id="rect182-7"
       style="fill:#00ff00;stroke-width:0.191624"
       inkscape:export-filename="F:\Mega\Desenvolvimento\portifólio\Art\rect1115.png"
       inkscape:export-xdpi="300"
       inkscape:export-ydpi="300" />
    <rect
       x="113.12334"
       y="87.014679"
       width="2.1090367"
       height="1.103742"
       rx="0.551871"
       fill="#e6e6e6"
       id="rect184-9"
       style="fill:#ff00ff;stroke-width:0.191624"
       inkscape:export-filename="F:\Mega\Desenvolvimento\portifólio\Art\rect1115.png"
       inkscape:export-xdpi="300"
       inkscape:export-ydpi="300" />
    <rect
       x="116.38095"
       y="87.014679"
       width="2.1090367"
       height="1.103742"
       rx="0.551871"
       fill="#e6e6e6"
       id="rect186-1"
       style="fill:#00ffff;stroke-width:0.191624"
       inkscape:export-filename="F:\Mega\Desenvolvimento\portifólio\Art\rect1115.png"
       inkscape:export-xdpi="300"
       inkscape:export-ydpi="300" />
    <rect
       x="104.75322"
       y="87.106689"
       width="7.351809"
       height="1.103742"
       rx="0.551871"
       fill="#e6e6e6"
       id="rect188-6"
       style="stroke-width:0.191624"
       inkscape:export-filename="F:\Mega\Desenvolvimento\portifólio\Art\rect1115.png"
       inkscape:export-xdpi="300"
       inkscape:export-ydpi="300" />
    <polygon
       points="303.59,473.566 295.093,440.774 287.59,469.07 "
       opacity="0.2"
       id="polygon192"
       transform="matrix(0.19162453,0,0,0.19162453,58.524882,26.677897)"
       inkscape:export-filename="F:\Mega\Desenvolvimento\portifólio\Art\rect1115.png"
       inkscape:export-xdpi="300"
       inkscape:export-ydpi="300" />
    <path
       d="m 88.045103,86.418743 c 0.77298,5.4999 2.55461,7.83605 7.70412,9.45265 1.13236,0.35549 0.25045,3.32793 -0.35822,3.06796 -0.29464,-0.12584 13.007557,1.109087 12.779807,0.87567 -1.57282,-1.61204 -5.22246,-3.90953 -5.14092,-3.9209 6.03002,-0.84127 7.70269,-6.49317 6.86751,-12.524056 l -0.0219,-0.15652 c -0.97089,-5.94475 -6.53068,-10.01179 -12.490277,-9.13677 -5.95964,0.87501 -10.11569,6.36856 -9.33678,12.341496 z"
       fill="#ffb6b6"
       id="path222-5"
       style="fill:#e9c6af;stroke-width:0.191624"
       sodipodi:nodetypes="cssssccscc"
       inkscape:export-filename="F:\Mega\Desenvolvimento\portifólio\Art\rect1115.png"
       inkscape:export-xdpi="300"
       inkscape:export-ydpi="300" />
    <path
       d="m 76.556742,131.50417 c 0.11689,0.0594 0.23571,0.11881 0.35261,0.1763 3.02765,1.51383 5.44978,2.37423 8.762971,3.31702 0.27977,-3.12348 0.54996,-8.61352 0.81248,-12.01678 0.069,-0.88338 0.13798,-1.62497 0.20506,-2.14811 0.0169,-0.27814 0.0737,-0.55241 0.16861,-0.8144 l -0.0114,0.8144 -0.0288,2.14811 -0.16672,12.28505 c 4.12139,1.09046 8.35502,1.70069 12.61657,1.81852 0.22229,0.006 0.44074,0.01 0.65153,0.0134 0.0747,0.002 0.147547,0.004 0.220367,0.004 0.23953,0.002 0.47714,0.004 0.71667,0.004 4.4909,0.003 8.96556,-0.53912 13.32557,-1.6154 -0.0939,-3.0909 -0.18779,-8.51962 -0.27785,-12.50925 -0.0192,-0.77991 -0.0364,-1.50616 -0.0556,-2.14811 -0.0364,-1.37203 -0.0747,-2.3608 -0.11115,-2.69232 0.0323,0.0587 0.0574,0.12114 0.0747,0.18588 0.17748,0.82629 0.29847,1.66371 0.36217,2.50644 0.0671,0.64195 0.13413,1.3682 0.2012,2.14811 0.35642,4.14484 0.72817,9.78052 1.11142,12.17008 2.28118,-0.62277 4.51958,-1.3928 6.70111,-2.30525 1.14975,-0.47906 2.27905,-0.9958 3.38793,-1.55024 -0.21079,-1.37969 -0.43116,-2.9261 -0.65728,-4.53 -0.17629,-1.24364 -0.35833,-2.52178 -0.54421,-3.78459 -0.28744,-1.95073 -4.55875,-15.5829 -4.82894,-16.10029 -0.23186,-0.44265 -0.45223,-0.86039 -0.6611,-1.24556 -0.50589,-0.93513 -0.93513,-1.68054 -1.25323,-2.15194 -1.32987,-2.01727 -3.3097,-3.519027 -5.61076,-4.255977 l -0.0575,-0.0153 -0.0402,0.0172 -3.91872,-1.2034 -0.57296,-0.1763 -1.56234,0.21719 c -5.38016,0.59266 -6.084817,1.51048 -10.536187,0.81703 l -2.43237,0.13853 -3.65236,1.335617 -0.0632,-0.0287 -0.0556,-0.023 -0.0575,0.0153 c -2.30071,0.73763 -4.28032,2.23924 -5.61075,4.25598 -0.180131,0.27019 -0.398601,0.62661 -0.645801,1.05777 -0.21076,0.366 -0.44071,0.78375 -0.68984,1.24556 -0.35449,0.65727 -0.74158,1.39886 -1.15166,2.20177 -0.0901,0.17629 -0.18206,0.35642 -0.27403,0.53846 -0.17055,0.33725 -0.34364,0.68153 -0.51929,1.03285 -0.40818,0.8144 -0.82974,1.66522 -1.25132,2.52944 -0.366,0.74925 -0.73584,2.28991 -1.09993,4.25023 -0.30083,1.62881 -0.59978,3.54889 -0.88913,5.54753 -0.37941,2.59077 0.0249,5.69317 -0.31808,8.07698 -0.0212,0.1514 -0.0441,0.29895 -0.0652,0.4465 z"
       fill="#3f3d56"
       id="path190-7"
       sodipodi:nodetypes="cccccccccccccccccccscccccccccccccccccccccccccccccccc"
       style="fill:#333333;fill-opacity:1;stroke-width:0.191624"
       inkscape:export-filename="F:\Mega\Desenvolvimento\portifólio\Art\rect1115.png"
       inkscape:export-xdpi="300"
       inkscape:export-ydpi="300" />
    <path
       d="m 73.371952,113.3305 c 0.58253,8.02524 -0.0212,11.55879 3.19439,18.17559 a 54.835117,54.835117 0 0 0 9.105981,3.4914 q 0.48866,0.13797 0.9792,0.26827 a 55.300504,55.300504 0 0 0 12.61657,1.81852 c 0.22228,0.006 0.44073,0.01 0.65152,0.0134 0.0747,0.002 0.147547,0.004 0.220367,0.004 0.23953,0.002 0.47714,0.004 0.71667,0.004 a 55.431449,55.431449 0 0 0 13.32557,-1.6154 q 0.65536,-0.16096 1.30497,-0.33917 a 54.703556,54.703556 0 0 0 6.70111,-2.30525 q 1.72462,-0.71859 3.38792,-1.55024 c 0.25103,-0.12647 0.50206,-0.25294 0.74925,-0.38325 1.27047,-2.23434 1.9929,-4.95157 2.00823,-8.21686 -0.87956,-5.62609 -53.018678,-14.21662 -54.961748,-9.36469 z"
       fill="#2f2e41"
       id="path194"
       style="fill:#333333;stroke-width:0.191624"
       inkscape:export-filename="F:\Mega\Desenvolvimento\portifólio\Art\rect1115.png"
       inkscape:export-xdpi="300"
       inkscape:export-ydpi="300" />
    <path
       d="m 73.373462,114.70487 c -0.0297,-0.49683 -0.063,-1.01004 -0.10182,-1.54447 1.94308,-4.85193 54.082198,3.73859 54.961758,9.36469 -0.002,0.51582 -0.0245,1.0164 -0.0616,1.50513 -2.13002,-5.55296 -51.662898,-13.7177 -54.798368,-9.32535 z"
       opacity="0.2"
       id="path196"
       style="stroke-width:0.191624"
       inkscape:export-filename="F:\Mega\Desenvolvimento\portifólio\Art\rect1115.png"
       inkscape:export-xdpi="300"
       inkscape:export-ydpi="300" />
    <g
       id="g6014"
       transform="matrix(0.19162453,0,0,0.19162453,58.524882,26.677897)"
       inkscape:export-filename="F:\Mega\Desenvolvimento\portifólio\Art\rect1115.png"
       inkscape:export-xdpi="300"
       inkscape:export-ydpi="300">
      <path
         d="m 246.41933,635.05074 a 6.41621,6.41621 0 0 0 6.18311,4.331 L 279.09426,638.7 a 6.32847,6.32847 0 0 0 5.98085,-4.657 l 3.74889,-40.08722 a 9.794,9.794 0 0 0 4.23792,0.87079 9.66133,9.66133 0 0 0 -0.48492,-19.31657 8.184,8.184 0 0 0 -1.73619,0.18056 6.54764,6.54764 0 0 0 -4.87405,-2.103 l -40.75051,1.05229 a 5.85418,5.85418 0 0 0 -1.00519,0.1248 6.36455,6.36455 0 0 0 -4.87318,8.26464 z m 43.17346,-43.81684 2.66763,-9.55274 a 6.50638,6.50638 0 0 0 0.0204,-3.37458 c 0.12944,-3.4e-4 0.24362,-0.0617 0.37306,-0.062 a 6.91049,6.91049 0 0 1 0.32357,13.81714 6.50522,6.50522 0 0 1 -3.38463,-0.82782 z"
         transform="translate(-230.59003,-161.86499)"
         fill="#2f2e41"
         id="path198" />
      <path
         d="m 244.21109,574.76459 c 0.86818,4.96412 10.62909,8.45388 22.36585,7.8473 10.79271,-0.49726 19.61746,-4.287 21.23421,-8.77851 a 6.025,6.025 0 0 0 -1.84436,-0.24588 l -40.75051,1.05229 a 5.85418,5.85418 0 0 0 -1.00519,0.1248 z"
         transform="translate(-230.59003,-161.86499)"
         fill="#3f3d56"
         id="path200" />
      <path
         d="m 268.728,613.02251 a 0.49659,0.49659 0 0 0 0.15091,-0.0664 l 5.75315,-3.76566 a 0.49922,0.49922 0 0 0 3.2e-4,-0.83621 l -5.97978,-3.91667 a 0.49972,0.49972 0 1 0 -0.54792,0.83585 l 5.34091,3.49818 -5.114,3.34794 a 0.49991,0.49991 0 0 0 0.39637,0.903 z"
         transform="translate(-230.59003,-161.86499)"
         fill="#f9a826"
         id="path202" />
      <path
         d="m 259.6412,613.44155 a 0.5,0.5 0 0 0 0.12608,-0.91842 l -5.30305,-3.04034 5.1256,-3.80723 a 0.49963695,0.49963695 0 1 0 -0.596,-0.80208 l -5.73863,4.26265 a 0.49951,0.49951 0 0 0 0.0492,0.83476 l 5.96526,3.41968 a 0.49962,0.49962 0 0 0 0.37156,0.051 z"
         transform="translate(-230.59003,-161.86499)"
         fill="#f9a826"
         id="path204" />
      <path
         d="m 268.15573,616.32252 a 0.48211,0.48211 0 0 0 0.137,-0.0579 0.49976,0.49976 0 0 0 0.16751,-0.68714 l -8.15548,-13.40836 a 0.50026,0.50026 0 0 0 -0.85441,0.52058 l 8.15548,13.40835 a 0.50033,0.50033 0 0 0 0.5499,0.22442 z"
         transform="translate(-230.59003,-161.86499)"
         fill="#f9a826"
         id="path206" />
    </g>
    <path
       d="m 95.856613,94.528973 c -0.57042,-1.14891 0.75729,-1.37064 0.91223,-2.64396 0.15494,-1.27332 1.39907,-2.49405 2.62599,-2.1199 0.733687,0.22374 1.290047,0.94563 2.056317,0.9801 1.05432,0.0474 1.65466,-1.16105 1.97942,-2.16522 l 1.32264,-4.08973 c 2.55115,2.00419 -0.67979,-0.0969 2.4804,-0.83062 1.2398,-0.287816 2.49141,-0.845106 3.21573,-1.891666 0.72432,-1.04656 0.71451,-2.66616 -0.28638,-3.45236 -0.49077,-0.38549 -1.14276,-0.5304 -1.61191,-0.94194 -1.34191,-1.17712 -0.34017,-3.3796 1.42895,-3.14174 l -3.36614,-0.40926 0.99645,-1.81654 c -0.72045,0.57186 -1.72556,0.65181 -2.63137,0.49184 -0.90581,-0.15996 -1.75963,-0.52984 -2.64605,-0.77545 -4.255437,-1.17906 -9.189557,0.9123 -11.301537,4.79026 -1.69704,-0.56037 -3.56386,-0.0146 -4.69172,1.37177 -0.89691,1.14624 -1.13673,2.67267 -1.16676,4.1278 -0.0559,2.869116 0.57914,5.709586 1.85155,8.281726 0.39658,0.79936 0.86532,1.58351 1.5394,2.16822 0.67408,0.58471 4.64894,2.98651 5.52812,2.8338"
       fill="#2f2e41"
       id="path224"
       sodipodi:nodetypes="csssscsssccccscccccsc"
       style="fill:#292929;fill-opacity:1;stroke-width:0.191624"
       inkscape:export-filename="F:\Mega\Desenvolvimento\portifólio\Art\rect1115.png"
       inkscape:export-xdpi="300"
       inkscape:export-ydpi="300" />
    <path
       style="fill:#292929;fill-opacity:1;stroke:none;stroke-width:0.191624px;stroke-linecap:butt;stroke-linejoin:miter;stroke-opacity:1"
       d="m 105.58978,92.088913 c 0.32243,-0.4756 0.74527,-0.9141 1.25215,-1.18469 0.91164,-0.48664 2.37896,-1.49326 3.02344,-0.68547 0.31083,0.38961 -0.24218,1.05656 -0.64622,1.34837 -0.38285,0.27651 -0.9462,0.0691 -1.40534,0.17962 -0.50322,0.12111 -0.95258,0.42921 -1.46111,0.52551 -0.27705,0.0525 -0.68387,0.25558 -0.84557,0.0246 -0.0428,-0.0611 0.0408,-0.14618 0.0827,-0.20791 z"
       id="path1518"
       sodipodi:nodetypes="aaaaaaaa"
       inkscape:export-filename="F:\Mega\Desenvolvimento\portifólio\Art\rect1115.png"
       inkscape:export-xdpi="300"
       inkscape:export-ydpi="300" />
    <path
       style="fill:#1a1a1a;fill-opacity:1;stroke:none;stroke-width:0.264583px;stroke-linecap:butt;stroke-linejoin:miter;stroke-opacity:1"
       d="m 109.44547,84.999963 -0.0908,0.75707 -7.72879,1.25772 v 1.10374 0 l 0.39301,-0.74855 7.4185,-0.7214 c 0.0322,0.35707 0.0659,0.53083 0.088,0.59441 0.29854,0.86057 0.59091,0.99836 0.57216,0.70394 -0.01,-0.15585 0.0273,-0.54005 -0.16253,-0.41493 -0.11163,0.0736 -0.13511,-0.24407 -0.17082,-0.41412 -0.16605,-0.65258 -0.12954,-1.03747 -0.0904,-1.68489 0.10708,-0.13742 0.45936,-0.29508 0.46314,-0.37765 0.0204,-0.44573 -0.15069,-0.43863 -0.18202,-0.31813 -0.18963,0.0983 -0.31115,0.0338 -0.50941,0.26279 z"
       id="path40609"
       inkscape:export-filename="F:\Mega\Desenvolvimento\portifólio\Art\rect1115.png"
       inkscape:export-xdpi="300"
       inkscape:export-ydpi="300"
       sodipodi:nodetypes="cccccccsssccscc" />
    <path
       style="fill:#1a1a1a;fill-opacity:0.19697;stroke:none;stroke-width:0.264583px;stroke-linecap:butt;stroke-linejoin:miter;stroke-opacity:1"
       d="m 109.2145,84.972563 -0.0908,0.75707 -7.3233,1.37036 c -0.45479,1.11884 -0.55683,1.21998 0.15647,0.14118 7.98165,-1.68944 7.2305,0.39487 7.48596,-1.83562 0.10708,-0.13742 0.45936,-0.29508 0.46314,-0.37765 0.0204,-0.44573 0.1002,-0.25943 -0.003,-0.28229 -0.18963,0.0983 -0.49035,-0.002 -0.68861,0.22695 z"
       id="path40609-9"
       inkscape:export-filename="F:\Mega\Desenvolvimento\portifólio\Art\rect1115.png"
       inkscape:export-xdpi="300"
       inkscape:export-ydpi="300"
       sodipodi:nodetypes="cccccsccc" />
  </g>
</svg>
